<svg version="1.1" id="Layer_1" xmlns="http://www.w3.org/2000/svg" xmlns:xlink="http://www.w3.org/1999/xlink" x="0px" y="0px"
	 width="100%" viewBox="0 0 1254 1254" enable-background="new 0 0 1254 1254" xml:space="preserve">
<path fill="#FEFEFE" opacity="1.000000" stroke="none" 
	d="
M575.000000,1255.000000 
	C383.333344,1255.000000 192.166672,1255.000000 1.000000,1255.000000 
	C1.000000,837.000000 1.000000,419.000000 1.000000,1.000000 
	C419.000000,1.000000 837.000000,1.000000 1255.000000,1.000000 
	C1255.000000,419.000000 1255.000000,837.000000 1255.000000,1255.000000 
	C1028.500000,1255.000000 802.000000,1255.000000 575.000000,1255.000000 
M448.113403,497.905884 
	C448.113403,497.905884 448.229950,497.832642 448.186340,497.094940 
	C444.244751,489.673401 440.303131,482.251831 436.069489,474.188446 
	C434.971619,472.126495 433.873749,470.064514 432.690277,467.327240 
	C431.179474,464.738495 429.668701,462.149780 428.158875,459.222534 
	C428.158875,459.222534 427.899139,459.005463 427.817535,458.310272 
	C425.259216,453.772186 422.700897,449.234131 420.075745,444.071625 
	C419.432526,443.028503 418.789307,441.985382 418.031067,440.230164 
	C415.704987,436.108612 413.378876,431.987061 411.020416,427.295380 
	C410.700409,426.854523 410.380402,426.413666 409.952850,425.266357 
	C407.632355,421.272095 405.311829,417.277832 402.450836,412.850067 
	C401.736389,411.195221 401.021973,409.540405 400.142548,407.179016 
	C395.447693,398.735107 390.752838,390.291199 385.964386,381.175934 
	C384.976715,379.450470 383.989075,377.725037 382.911713,375.299774 
	C380.925201,371.871674 378.938690,368.443573 376.885651,364.315399 
	C375.038940,361.899963 373.192230,359.484528 371.044495,356.540436 
	C366.122772,352.070312 360.273987,350.098572 353.692322,350.097778 
	C302.744690,350.091614 251.797073,350.068573 200.849457,350.091492 
	C190.245468,350.096252 187.219757,355.047150 192.177139,364.310547 
	C208.876236,395.514465 225.611237,426.699249 242.384750,457.863251 
	C250.172409,472.332123 258.080597,486.736115 265.998749,501.807800 
	C266.661102,502.873199 267.323425,503.938599 268.071777,505.708588 
	C269.647278,508.502197 271.222809,511.295807 272.914734,514.800598 
	C274.613983,517.866455 276.313263,520.932373 278.110352,524.696228 
	C279.912079,527.841797 281.713806,530.987366 283.665894,534.855286 
	C285.010803,537.275208 286.355743,539.695129 287.868317,542.806946 
	C289.235718,545.204407 290.603088,547.601868 291.944885,550.732178 
	C301.582306,568.581116 311.219696,586.429993 320.925598,604.977356 
	C324.241180,611.099792 327.556793,617.222168 330.894775,623.949341 
	C331.290955,624.636902 331.687134,625.324463 332.062958,626.553528 
	C332.328766,626.775635 332.594574,626.997742 332.877838,627.115112 
	C332.877838,627.115112 332.783630,627.164001 333.010986,627.825623 
	C335.031342,631.553833 337.051697,635.282104 339.065399,639.581665 
	C339.343475,639.823730 339.621521,640.065857 339.908569,640.898132 
	C340.230164,641.347839 340.551788,641.797607 340.992584,642.760742 
	C341.315796,643.174744 341.639008,643.588806 342.039703,644.718262 
	C350.411163,660.477051 358.782623,676.235901 367.264008,692.676453 
	C369.103394,695.942261 370.942780,699.208008 372.837921,703.166687 
	C377.570526,712.072693 382.303101,720.978638 387.033295,730.526062 
	C387.605591,731.389160 388.177917,732.252258 388.885620,733.831909 
	C395.884308,746.904358 402.882965,759.976807 409.982544,773.764648 
	C432.729248,816.456421 455.493561,859.138916 478.188232,901.858276 
	C479.956635,905.187073 482.141998,907.750427 486.101501,907.774658 
	C490.047333,907.798828 492.323242,905.345459 494.075958,901.979248 
	C501.227295,888.244812 508.540588,874.594666 515.717346,860.873352 
	C516.460205,859.452942 516.692322,857.765320 517.128174,856.146790 
	C517.128174,856.146790 517.110352,856.206909 517.657898,856.019348 
	C517.767639,855.679443 517.877380,855.339600 518.383423,854.416931 
	C520.813416,850.246826 523.243347,846.076660 526.099182,841.488647 
	C531.496399,830.983643 536.893616,820.478577 542.776062,809.518860 
	C544.612122,805.338623 546.448120,801.158386 548.865662,796.603088 
	C552.020020,790.927551 555.298401,785.316101 558.278320,779.550354 
	C559.843994,776.521179 560.887268,773.221985 562.828125,769.910217 
	C568.279480,759.336243 573.730774,748.762329 579.729126,737.780579 
	C583.211975,730.871216 586.694885,723.961792 590.691406,716.621826 
	C600.480469,698.438110 610.269531,680.254333 620.612854,661.816406 
	C621.339417,660.879333 622.065979,659.942200 623.031860,658.566528 
	C623.031860,658.566528 623.181702,658.089905 623.830017,657.938110 
	C624.361572,657.549927 624.975220,657.237427 625.412842,656.762634 
	C640.304626,640.606873 658.883728,633.810608 680.619995,634.783569 
	C683.700256,634.921448 686.814026,634.310242 690.861816,634.110352 
	C696.165344,634.279602 701.501404,634.159668 706.757751,634.749512 
	C709.118347,635.014343 711.319702,636.698608 713.503418,638.572083 
	C711.594788,654.083435 711.396606,669.570435 714.035950,685.583435 
	C714.165771,686.143127 714.295654,686.702759 714.332397,687.866699 
	C714.484436,688.236694 714.636536,688.606628 714.737671,689.851318 
	C717.162903,699.328918 719.588196,708.806580 722.103455,719.086487 
	C725.284485,726.375977 728.465454,733.665527 731.781738,741.688904 
	C736.162781,748.189392 740.543762,754.689819 744.875732,761.909485 
	C746.030334,763.957520 747.184998,766.005615 748.063171,768.545410 
	C748.364685,768.731689 748.666138,768.917969 749.211060,769.591919 
	C749.713196,770.094910 750.215332,770.597961 750.909180,771.698059 
	C751.609436,772.454956 752.309631,773.211792 753.162781,774.553406 
	C753.990845,775.409668 754.818909,776.265930 755.902283,777.751038 
	C756.545593,778.375671 757.188904,779.000244 758.062622,780.204834 
	C760.324463,782.488220 762.586243,784.771606 765.124939,787.676147 
	C784.030334,806.699097 806.048767,820.943176 831.226257,830.133179 
	C859.701599,840.526917 888.979553,843.571838 919.823364,838.914246 
	C924.222534,837.960754 928.621643,837.007324 933.823792,836.104126 
	C939.214722,834.371765 944.605652,832.639465 950.750427,831.089661 
	C982.861450,820.003906 1009.378662,800.887451 1030.957886,774.838318 
	C1042.356934,761.078003 1051.831909,746.095642 1058.635010,728.740784 
	C1062.373169,715.612610 1067.175781,702.679504 1069.624878,689.315063 
	C1074.525391,662.575439 1072.609619,635.885071 1065.314697,609.687439 
	C1041.859497,525.454468 960.993042,470.336243 873.911987,479.268250 
	C858.817505,480.816528 843.975525,483.755859 829.213074,489.927429 
	C822.004272,493.407867 814.479553,496.364105 807.652588,500.478119 
	C793.560242,508.970306 779.839844,518.079834 765.292419,526.869263 
	C764.142517,527.477600 762.992554,528.085999 761.053894,528.762878 
	C758.049133,529.582397 755.066406,530.496582 752.034790,531.200195 
	C746.917847,532.387695 741.770020,533.441711 736.072571,534.077637 
	C734.171997,533.679626 732.272278,532.945984 730.370605,532.940796 
	C721.289124,532.916199 712.207092,533.089172 702.195251,532.966492 
	C694.789490,532.970337 687.383789,532.974121 679.067749,532.892029 
	C675.212463,532.578430 671.357178,532.264832 667.845215,531.294983 
	C670.909912,524.533752 673.974548,517.772583 677.355225,510.400482 
	C679.985962,504.973877 682.616699,499.547302 685.727539,493.634064 
	C689.858948,486.542969 693.990356,479.451874 698.702637,471.987549 
	C703.177368,467.888458 707.652100,463.789337 712.820068,459.414673 
	C721.882019,456.233154 730.943970,453.051636 740.781616,450.009277 
	C742.537231,449.709320 744.292786,449.409363 746.959595,449.276825 
	C751.305603,449.186127 755.651550,449.095398 760.921143,449.181580 
	C771.579651,449.184875 782.239197,449.286407 792.896362,449.167908 
	C807.949097,449.000519 819.132446,441.869080 826.054016,428.851898 
	C837.375488,407.560242 847.751099,385.762726 859.216064,364.551758 
	C864.381104,354.996033 859.559204,349.783966 850.402222,349.901123 
	C813.602966,350.371948 776.793823,350.176697 739.988831,350.071045 
	C712.213989,349.991333 686.325806,357.037476 662.110718,370.375549 
	C633.212402,386.293274 611.400513,409.375824 594.273376,438.062317 
	C592.786865,440.680786 591.300354,443.299255 589.213623,446.268097 
	C587.631958,449.446442 586.050354,452.624786 584.002563,456.272156 
	C579.431580,465.869110 574.736267,475.409180 570.315674,485.074921 
	C561.197205,505.012360 552.225342,525.016846 542.717163,545.564392 
	C533.060913,566.332764 523.404663,587.101135 513.200195,608.232605 
	C512.784973,609.446472 512.369812,610.660278 511.260437,611.967285 
	C509.599548,609.643127 507.938629,607.319031 506.175232,604.291809 
	C504.778351,602.193726 503.381439,600.095642 502.023621,597.252502 
	C498.391449,590.716248 494.759277,584.179993 491.227905,577.035583 
	C490.814331,576.356445 490.400757,575.677246 490.015015,574.272400 
	C487.706116,570.130066 485.397217,565.987732 482.880127,561.205811 
	C481.622375,559.137024 480.364594,557.068176 479.168182,554.256165 
	C476.822693,550.382507 474.477203,546.508911 472.231598,542.016418 
	C471.717896,540.919006 471.204193,539.821533 470.467682,538.020630 
	C468.697205,534.911316 466.926758,531.802063 464.912231,528.097168 
	C464.028961,526.695862 463.145691,525.294556 462.171814,523.151611 
	C458.505859,516.319458 454.839874,509.487274 450.891388,502.078156 
	C450.444153,501.386505 449.996887,500.694855 449.356934,499.464569 
	C448.961945,498.903503 448.566956,498.342407 448.113403,497.905884 
z"/>
<path fill="#04C77D" opacity="1.000000" stroke="none" 
	d="
M371.345520,357.069122 
	C373.192230,359.484528 375.038940,361.899963 376.605591,364.826050 
	C375.952209,365.657776 375.541046,365.944336 375.211395,366.305328 
	C372.150574,369.657715 372.221863,373.594788 375.140259,377.315643 
	C378.277222,381.315155 379.754089,376.614410 382.029053,376.147888 
	C382.349823,376.082123 382.677124,376.048248 383.001404,375.999573 
	C383.989075,377.725037 384.976715,379.450470 385.986084,381.899231 
	C383.935638,385.830200 384.252991,388.539520 386.677917,391.719116 
	C388.453430,394.047180 389.574066,397.294586 389.872101,400.244812 
	C390.557526,407.029907 393.751709,409.634460 400.307556,407.885559 
	C401.021973,409.540405 401.736389,411.195221 402.721771,413.448273 
	C402.936554,414.702301 403.112091,415.519531 402.786194,415.987518 
	C400.808441,418.827545 399.829803,422.173401 402.559479,424.468597 
	C404.271210,425.907867 407.507904,425.533478 410.060394,425.972809 
	C410.380402,426.413666 410.700409,426.854523 410.974365,427.999542 
	C410.618866,430.624146 410.080109,432.539856 410.040283,434.465851 
	C409.880310,442.206299 410.826233,442.914246 418.146088,440.942261 
	C418.789307,441.985382 419.432526,443.028503 419.949127,444.730164 
	C416.826202,449.033234 415.922852,452.567566 418.853851,456.999878 
	C421.496246,460.995880 424.533386,459.976562 427.899139,459.005463 
	C427.899139,459.005463 428.158875,459.222534 428.118774,459.803223 
	C429.644440,462.923431 431.210175,465.462982 432.775879,468.002533 
	C433.873749,470.064514 434.971619,472.126495 435.875977,474.718262 
	C431.244110,481.851562 437.769287,487.310059 436.862091,491.881958 
	C439.912903,493.548645 441.681000,494.548126 443.480438,495.487518 
	C445.045197,496.304474 446.645416,497.053558 448.229950,497.832642 
	C448.229950,497.832642 448.113403,497.905884 448.112793,498.146912 
	C448.591339,498.926392 449.070496,499.464783 449.549622,500.003204 
	C449.996887,500.694855 450.444153,501.386505 450.890503,502.700317 
	C451.115326,504.627991 451.255707,505.955353 451.583862,507.234558 
	C452.341461,510.187744 453.708649,513.084961 453.895538,516.063416 
	C454.301453,522.533203 455.622040,524.027344 462.262421,523.893250 
	C463.145691,525.294556 464.028961,526.695862 464.879395,528.725769 
	C460.988464,534.878967 461.678833,536.780396 468.248383,538.549988 
	C469.021912,538.758423 469.874512,538.673218 470.690460,538.724121 
	C471.204193,539.821533 471.717896,540.919006 472.145447,542.755554 
	C471.520752,545.712891 470.992920,547.933777 470.441437,550.148743 
	C469.422913,554.239746 471.566864,556.444153 475.744690,555.602539 
	C476.860657,555.377808 477.985870,555.199219 479.106842,554.999390 
	C480.364594,557.068176 481.622375,559.137024 482.814026,561.902710 
	C480.862396,570.002197 481.579529,571.230347 489.987183,574.998108 
	C490.400757,575.677246 490.814331,576.356445 491.141785,577.815125 
	C490.980591,581.072876 491.524994,583.780518 490.708832,585.984253 
	C488.648529,591.547485 491.637695,594.033997 495.938324,595.936279 
	C497.878113,596.794373 499.964600,597.320740 501.984558,597.997559 
	C503.381439,600.095642 504.778351,602.193726 505.834564,604.648132 
	C502.039154,605.245178 500.105804,607.551392 500.521301,610.538330 
	C501.059326,614.406372 503.973846,617.288147 507.887512,617.541748 
	C511.124420,617.751404 512.032288,614.822876 511.954651,611.874146 
	C512.369812,610.660278 512.784973,609.446472 513.759033,608.242065 
	C514.689270,610.461365 515.292053,612.662292 515.377136,614.882996 
	C515.501282,618.125671 515.684509,621.469727 515.049683,624.610229 
	C514.336487,628.138367 513.114502,631.683716 511.444550,634.870911 
	C508.790222,639.936890 506.068665,645.132385 502.378754,649.414062 
	C500.789246,651.258423 500.198975,652.298584 500.228912,654.609497 
	C500.276367,658.272339 500.047333,662.078979 499.070404,665.583679 
	C497.409729,671.541077 495.045837,677.300415 493.039948,683.164429 
	C492.152313,685.759338 491.581940,688.471191 490.580139,691.016846 
	C488.178040,697.121277 484.926331,702.982544 483.295654,709.273315 
	C481.704681,715.410767 482.032257,722.019653 480.892578,728.308350 
	C479.997040,733.250061 481.405426,738.891479 476.122131,742.804016 
	C474.308167,744.147339 472.760803,748.692688 473.676117,750.334351 
	C476.188446,754.840393 474.559570,757.385925 471.824341,759.249634 
	C472.837036,764.164551 474.013947,768.412476 474.499512,772.737976 
	C474.833923,775.716858 474.129089,778.800659 474.033295,781.842102 
	C473.870300,787.018250 474.981110,792.577881 473.440002,797.283142 
	C471.362335,803.626526 473.821472,808.467407 477.393097,812.003540 
	C484.430145,818.970581 484.887024,828.226318 488.084869,836.545410 
	C489.415436,840.006775 489.310638,844.879089 494.078674,845.900208 
	C501.696289,847.531616 501.653290,847.344788 503.094055,855.608887 
	C503.344299,857.044373 504.372528,858.743286 505.563599,859.528076 
	C507.675690,860.919861 510.188049,861.704163 512.310364,862.644043 
	C513.654541,860.858948 515.408020,858.530334 517.161438,856.201721 
	C516.692322,857.765320 516.460205,859.452942 515.717346,860.873352 
	C508.540588,874.594666 501.227295,888.244812 494.075958,901.979248 
	C492.323242,905.345459 490.047333,907.798828 486.101501,907.774658 
	C482.141998,907.750427 479.956635,905.187073 478.188232,901.858276 
	C455.493561,859.138916 432.729248,816.456421 410.223755,773.214600 
	C412.616058,770.256470 413.687927,767.941528 411.121674,764.925476 
	C410.256866,763.909180 410.824249,761.792297 410.332520,760.312927 
	C409.589569,758.077698 408.742523,755.797852 407.472412,753.840149 
	C406.278900,752.000305 403.978882,750.797668 403.046295,748.885315 
	C400.799622,744.278198 399.271973,739.322815 397.066528,734.692566 
	C395.183228,730.738708 392.189606,730.130798 388.750244,733.115356 
	C388.177917,732.252258 387.605591,731.389160 387.023621,729.748596 
	C387.008514,725.814392 387.348267,722.610046 386.920959,719.511475 
	C386.184418,714.170654 386.919830,707.789001 378.918121,706.642273 
	C377.905945,706.497131 376.330627,703.492065 376.623230,702.166992 
	C378.173706,695.145996 377.304047,692.287964 371.552826,688.346619 
	C370.669434,687.741211 369.121979,686.862732 369.199982,686.290222 
	C369.921082,680.997620 366.434937,677.497986 364.379547,673.263000 
	C361.036530,666.375000 358.634918,659.031616 355.781372,651.902283 
	C355.486816,651.166321 354.816742,650.006531 354.329437,650.010864 
	C349.546631,650.052979 346.830566,646.479675 343.435089,644.085083 
	C343.094299,643.844788 342.460205,644.020325 341.962189,644.002869 
	C341.639008,643.588806 341.315796,643.174744 341.142639,642.183228 
	C343.652863,640.095032 346.908722,639.505188 346.092285,635.283447 
	C345.529358,632.372620 346.965363,628.462097 345.502106,626.476685 
	C343.069092,623.175476 339.025177,621.061523 334.889008,617.848938 
	C335.546570,621.642151 336.055939,624.580566 336.582550,627.618225 
	C335.050537,627.435059 333.917084,627.299500 332.783630,627.164001 
	C332.783630,627.164001 332.877838,627.115112 332.829315,626.916199 
	C332.548279,626.482178 332.315796,626.247131 332.083313,626.012024 
	C331.687134,625.324463 331.290955,624.636902 330.913696,623.241333 
	C330.149017,619.759094 330.578400,617.680481 332.591583,615.136658 
	C334.320496,612.952026 335.200043,609.018066 334.532135,606.336609 
	C333.941711,603.966064 330.875092,600.927246 328.578278,600.622620 
	C326.207855,600.308350 323.447113,602.937500 320.857117,604.278931 
	C311.219696,586.429993 301.582306,568.581116 292.324585,550.427734 
	C298.099518,553.660034 301.203613,552.490662 302.357117,546.227417 
	C303.039795,542.520630 303.371948,538.731628 303.546356,534.965027 
	C303.577759,534.286560 302.074860,533.537048 301.252136,532.794922 
	C300.502808,535.001343 300.406464,537.354492 299.421722,537.817261 
	C295.670105,539.580444 291.631836,540.733826 287.700653,542.115051 
	C286.355743,539.695129 285.010803,537.275208 284.044922,534.459412 
	C287.498505,534.351501 290.573059,534.639465 294.481628,535.005493 
	C288.198456,525.658020 290.146667,525.900635 291.715302,521.549011 
	C289.767273,518.844116 288.204742,515.528198 285.627411,513.505249 
	C283.954163,512.191895 280.800903,512.764038 278.310730,512.491455 
	C278.476715,514.244019 278.544830,516.013733 278.847809,517.742310 
	C279.012268,518.680542 279.456085,519.627136 279.982513,520.433838 
	C281.622009,522.946106 280.142975,523.627686 278.012512,523.998230 
	C276.313263,520.932373 274.613983,517.866455 273.151459,514.244141 
	C275.705444,511.352142 278.022705,509.016571 280.048950,506.974304 
	C276.753662,501.498108 272.624176,496.242218 270.274048,490.284454 
	C267.856201,484.155029 267.173920,477.340973 265.667023,470.531830 
	C266.561859,469.813873 267.794556,468.824890 268.904602,467.934265 
	C266.741486,458.771606 268.991180,456.218475 278.130341,456.956268 
	C279.113861,457.035675 280.117737,456.819580 281.111298,456.829712 
	C282.175690,456.840546 284.028168,456.696716 284.153290,457.076385 
	C284.513458,458.169159 284.484650,459.613861 284.055237,460.701874 
	C282.680573,464.184875 280.917725,467.518005 279.618988,471.025391 
	C279.267395,471.974884 279.637177,473.741119 280.352448,474.431610 
	C282.390564,476.399231 284.777222,478.005737 287.051025,479.773193 
	C286.338898,480.907074 285.684021,481.470032 285.704529,482.007233 
	C285.765472,483.604492 286.092102,485.191589 286.314880,486.782654 
	C287.215759,485.610443 288.137299,484.453400 289.011566,483.261688 
	C289.848297,482.121185 290.635864,480.944641 291.445038,479.783936 
	C291.854187,480.074524 292.263367,480.365143 292.672546,480.655762 
	C292.126770,482.466034 291.580994,484.276306 291.437286,484.753052 
	C293.419617,487.734344 294.545807,489.993530 296.221252,491.719574 
	C297.117249,492.642639 299.178131,493.318817 300.336182,492.943329 
	C304.319061,491.651947 308.135620,489.847595 312.717804,487.947540 
	C311.926361,487.396179 310.450806,486.611908 309.306793,485.489685 
	C308.476440,484.675049 308.084900,483.413147 307.497711,482.350708 
	C308.800446,482.143982 311.005249,481.397461 311.257660,481.819244 
	C312.756500,484.323975 314.270416,486.998474 314.876648,489.810516 
	C315.544769,492.909668 316.131470,495.851349 319.956360,494.251343 
	C324.039551,492.543243 324.928864,494.160461 326.205688,497.662689 
	C327.087250,500.080719 329.480530,502.907654 331.796417,503.627594 
	C335.699036,504.840759 340.372681,508.210907 340.980499,512.453613 
	C341.437469,515.643677 343.159607,515.435303 345.150299,514.162537 
	C346.387848,513.371338 347.430176,512.207397 348.395447,511.070831 
	C350.908905,508.111572 353.429443,506.207886 357.812042,507.819702 
	C360.846252,508.935669 364.353241,509.033051 367.655029,509.071869 
	C370.409821,509.104248 373.165100,508.246185 375.937653,508.087036 
	C376.871826,508.033386 378.424561,508.713470 378.676910,509.421112 
	C378.977722,510.264618 378.512085,512.070862 377.812775,512.470764 
	C372.936737,515.259338 374.405060,520.198853 372.919128,524.859009 
	C374.478302,524.391174 375.685638,524.405640 376.177734,523.819519 
	C379.204773,520.214111 383.318359,522.051392 386.934875,521.489258 
	C388.153595,521.299805 389.399231,521.283569 390.632568,521.188110 
	C390.293640,519.834290 389.964508,518.477966 389.613953,517.127197 
	C388.521973,512.919312 385.328888,507.704773 386.767395,504.720184 
	C389.624969,498.791321 387.140900,496.925049 383.003235,494.258881 
	C379.592834,492.061310 380.414459,488.645447 384.241486,486.912872 
	C385.208557,486.475006 385.826141,485.265228 386.604340,484.410156 
	C385.501862,483.609772 384.493713,482.415588 383.269714,482.122375 
	C382.103455,481.842987 380.573700,482.229156 379.443604,482.798676 
	C374.676819,485.200958 369.999664,487.781128 365.873077,489.984711 
	C363.013092,488.157745 360.144714,486.533813 357.522858,484.579193 
	C355.701721,483.221558 353.990540,481.579437 352.638336,479.760956 
	C350.483398,476.862976 352.303406,473.121857 355.890503,473.076508 
	C357.938232,473.050629 359.985565,473.930878 362.050812,474.028778 
	C363.442596,474.094696 365.197784,473.908539 366.179199,473.096497 
	C367.127106,472.312164 367.291626,470.581085 367.800323,469.265869 
	C366.509705,469.014984 365.205536,468.818298 363.931641,468.500366 
	C362.087769,468.040192 360.265808,467.492310 359.443268,467.263031 
	C358.552612,463.505249 358.759674,459.720673 357.011169,458.230133 
	C355.014221,456.527802 351.276672,456.867279 347.560638,456.184479 
	C348.713623,453.308136 349.704376,450.836548 350.672577,448.421204 
	C344.965759,444.987396 344.982117,445.001984 349.331451,440.122498 
	C349.969574,439.406586 350.512268,438.529449 350.845154,437.632629 
	C351.693085,435.348541 351.940948,432.707733 353.242310,430.750427 
	C357.602020,424.193298 356.502350,419.840210 349.328644,416.103394 
	C346.143555,414.444275 342.974823,412.630585 340.186615,410.401733 
	C339.250549,409.653503 338.986237,407.233643 339.414124,405.897858 
	C339.707825,404.980896 341.690216,404.184692 342.979431,404.077789 
	C349.364075,403.548218 352.345978,398.220764 355.959839,394.326111 
	C357.638031,392.517548 356.931793,388.313751 356.950012,385.193695 
	C356.972931,381.266388 356.718964,377.457855 361.392822,375.648987 
	C362.173920,375.346710 362.841766,373.813965 362.921844,372.799286 
	C363.282013,368.235138 365.259918,364.691620 368.685455,361.676361 
	C369.946716,360.566162 370.480103,358.629059 371.345520,357.069122 
M385.301086,624.032776 
	C381.942871,624.032776 378.584686,624.032776 375.226471,624.032776 
	C374.793030,624.533875 374.359558,625.035034 373.926117,625.536133 
	C380.907623,628.051086 377.187622,633.367920 378.842804,637.401123 
	C377.075104,637.868469 375.684753,638.236023 374.390381,638.578186 
	C372.902924,643.954834 376.885101,645.227112 380.188232,646.462585 
	C384.610504,648.116821 390.440643,646.167664 392.410736,643.306213 
	C393.744537,641.368958 395.304688,639.153992 397.305176,638.205139 
	C400.806396,636.544373 401.654968,634.528931 400.187744,631.104858 
	C399.608398,629.752869 398.981750,628.208130 399.094910,626.809265 
	C399.584778,620.753784 393.662384,622.621338 391.056030,620.452515 
	C390.499634,619.989502 387.591217,622.352966 385.301086,624.032776 
M431.510468,593.831116 
	C432.235260,594.046814 433.159912,594.660156 433.652039,594.412842 
	C436.576416,592.943481 439.400665,591.275024 442.478241,589.550293 
	C441.059570,587.159424 439.877808,583.794006 437.553619,581.691345 
	C435.737762,580.048523 432.428955,579.257507 429.933136,579.518555 
	C428.773468,579.639893 426.932861,583.339783 427.239471,585.096619 
	C427.736603,587.944946 429.747772,590.528931 431.510468,593.831116 
M359.609863,524.905029 
	C365.307556,526.649780 368.217499,524.876465 368.349670,519.120850 
	C365.322174,521.168274 359.736938,517.732056 359.609863,524.905029 
M391.002716,536.462463 
	C392.006165,535.362183 393.009583,534.261902 394.977966,532.103577 
	C391.040771,532.765442 388.662689,533.165222 386.284637,533.564941 
	C386.238251,533.972351 386.191833,534.379700 386.145447,534.787048 
	C387.541046,535.429443 388.936646,536.071777 391.002716,536.462463 
M351.545898,408.022247 
	C351.293121,408.869873 351.040344,409.717468 350.787567,410.565094 
	C352.211182,410.600555 353.674713,410.829803 355.033264,410.549683 
	C355.424469,410.469025 355.513092,408.920868 355.740448,408.045563 
	C354.590973,407.964569 353.441467,407.883575 351.545898,408.022247 
M387.540466,526.215881 
	C386.016846,526.062439 384.477783,525.745178 382.981873,525.885925 
	C382.661163,525.916016 382.496460,527.604187 381.874329,530.034912 
	C384.517426,528.414429 385.835907,527.606018 387.540466,526.215881 
M386.693573,456.002045 
	C387.194214,456.939484 387.694824,457.876923 388.195465,458.814362 
	C388.768829,458.200531 389.342224,457.586700 389.915588,456.972870 
	C389.018280,456.486877 388.120941,456.000916 386.693573,456.002045 
M371.174866,462.497284 
	C371.861847,462.867218 372.548828,463.237122 373.235809,463.607056 
	C373.385956,463.041351 373.536133,462.475647 373.686279,461.909943 
	C372.901489,461.880310 372.116699,461.850677 371.174866,462.497284 
M271.044098,469.226624 
	C271.345154,469.787109 271.646240,470.347595 271.947327,470.908112 
	C272.446594,470.637268 272.945831,470.366425 273.445068,470.095551 
	C272.860596,469.754395 272.276093,469.413269 271.044098,469.226624 
M392.253265,511.929047 
	C392.720612,512.554810 393.187958,513.180603 393.655304,513.806396 
	C393.969543,513.517334 394.283783,513.228210 394.598022,512.939087 
	C393.958710,512.440735 393.319397,511.942322 392.253265,511.929047 
M345.071014,521.253296 
	C344.445190,521.720642 343.819397,522.187927 343.193573,522.655212 
	C343.482697,522.969482 343.771820,523.283691 344.060913,523.597961 
	C344.559326,522.958679 345.057709,522.319397 345.071014,521.253296 
M393.504974,530.298035 
	C393.878937,529.869934 394.264038,529.449951 394.597198,528.992188 
	C394.615753,528.966675 394.204651,528.628479 393.993500,528.435852 
	C393.714172,528.916809 393.434814,529.397827 393.504974,530.298035 
M383.392303,476.201721 
	C383.786011,476.205963 384.179688,476.210175 384.573395,476.214417 
	C384.574951,476.051025 384.587433,475.745636 384.576447,475.744781 
	C384.184662,475.714569 383.790710,475.712860 383.392303,476.201721 
z"/>
<path fill="#25344C" opacity="1.000000" stroke="none" 
	d="
M755.646973,777.122253 
	C754.818909,776.265930 753.990845,775.409668 753.071899,773.891418 
	C752.226501,772.519897 751.471985,771.810425 750.717468,771.100952 
	C750.215332,770.597961 749.713196,770.094910 749.037842,769.144287 
	C748.757263,768.427124 748.582214,768.212769 748.339600,768.053650 
	C747.184998,766.005615 746.030334,763.957520 744.923706,761.171387 
	C745.860107,758.909546 746.714905,757.365112 747.643494,755.866333 
	C750.066895,751.955017 753.089905,748.299927 754.834045,744.109802 
	C757.531921,737.628113 758.507263,730.331482 761.759277,724.200562 
	C767.072327,714.184082 772.038025,704.276733 773.648254,692.862549 
	C774.634338,685.873108 776.514404,679.009521 778.002075,672.091370 
	C778.653442,669.062256 779.158630,665.988464 780.029114,663.022705 
	C781.561340,657.801941 784.012756,652.750061 784.794922,647.438354 
	C785.578918,642.114868 785.376892,636.993835 787.276001,631.473877 
	C792.179932,617.220459 795.871094,602.457886 798.811401,587.653381 
	C800.748047,577.902222 808.364990,571.789368 811.898193,563.074646 
	C814.638000,556.316711 820.323792,550.749023 824.739075,544.680664 
	C825.195618,544.053162 825.967285,543.665161 826.508606,543.087219 
	C828.285889,541.189636 830.008423,539.240906 831.782898,537.340637 
	C833.146301,535.880615 834.535522,533.255188 835.948792,533.231018 
	C843.214539,533.106873 850.187317,528.030762 857.667419,531.831421 
	C857.814331,531.906067 858.193237,531.524109 858.760620,531.170044 
	C858.421143,530.503723 857.799194,529.822937 857.787781,529.131958 
	C857.771240,528.132080 857.888428,526.791260 858.516785,526.210876 
	C859.198669,525.580872 860.793640,525.169678 861.509644,525.555481 
	C862.275696,525.968262 862.836182,527.410156 862.869507,528.423157 
	C863.013367,532.793945 862.931091,537.172119 862.931091,541.434753 
	C867.471985,541.854126 870.562012,539.128479 870.670227,535.460144 
	C870.704773,534.289795 870.639221,532.846985 871.265381,532.014771 
	C873.030212,529.668762 875.130676,527.575134 877.010254,525.480774 
	C879.302124,525.685791 881.790649,526.481750 884.000366,525.999634 
	C890.856140,524.503845 891.706665,524.709778 894.982422,530.955078 
	C896.601562,534.042053 903.226257,537.129211 906.397339,536.274475 
	C911.676392,534.851624 912.323853,535.288147 913.027710,540.493469 
	C913.226379,541.962952 913.658386,543.400574 913.976990,544.854248 
	C914.734863,548.310730 916.346619,549.588928 920.035706,548.058289 
	C926.460022,545.392883 928.770813,546.468079 932.203918,552.830322 
	C932.465820,553.315735 933.097046,553.601807 933.948792,554.303894 
	C934.667847,552.419128 935.229187,550.947693 935.790527,549.476257 
	C936.746094,550.863708 937.134094,552.149902 936.954346,553.351196 
	C936.251465,558.049744 940.195435,558.753906 942.870972,559.130005 
	C945.076660,559.440002 947.649597,557.626099 949.955566,556.533447 
	C951.146851,555.968872 952.054138,554.814819 953.233887,554.206726 
	C953.433411,554.103882 954.813171,555.384399 954.870483,556.088928 
	C955.017578,557.897400 955.419312,560.777222 954.494629,561.394714 
	C950.147034,564.297974 950.707764,565.419617 955.522095,566.147522 
	C956.560242,566.304443 957.408813,567.625854 958.456543,567.826233 
	C960.796143,568.273743 964.013184,569.439880 965.439514,568.381592 
	C970.087524,564.932983 974.769531,565.787964 979.658691,566.757202 
	C982.310120,567.282776 983.860779,566.451477 984.009705,563.552673 
	C984.064087,562.493713 984.366760,561.447510 984.816040,558.952148 
	C989.104248,562.075134 992.762390,564.420349 996.020508,567.229431 
	C998.039612,568.970215 998.567383,570.884155 995.916687,573.422180 
	C993.017639,576.197937 994.132507,581.044250 997.296692,584.222168 
	C998.052490,584.981201 998.773865,586.065857 998.924622,587.087280 
	C999.719971,592.476746 1000.097412,597.937378 1001.105225,603.281799 
	C1001.555298,605.668640 1003.085510,607.869568 1004.224182,610.104614 
	C1006.122681,613.830933 1013.244446,614.686768 1009.972839,621.057007 
	C1014.987366,624.449158 1021.476929,627.672791 1020.520264,633.955872 
	C1019.804260,638.658264 1024.859131,645.968811 1015.727417,648.695251 
	C1017.343445,649.536926 1018.932373,649.398926 1019.824890,650.121277 
	C1021.087219,651.142883 1022.772522,652.901184 1022.635620,654.167114 
	C1022.134033,658.806641 1020.837952,663.353699 1020.077209,667.974548 
	C1019.702454,670.250916 1020.609863,673.095093 1019.535522,674.798096 
	C1018.484009,676.464722 1015.651245,677.007446 1012.944092,678.375000 
	C1015.129944,678.791443 1016.665588,679.083923 1018.164062,679.369385 
	C1018.902527,680.883423 1019.775513,682.283447 1020.287170,683.804993 
	C1021.291199,686.791138 1022.715149,689.823730 1022.819580,692.876343 
	C1022.944519,696.527161 1020.464233,697.411804 1017.110779,695.734314 
	C1013.758606,694.057434 1010.282776,692.627808 1006.861145,691.089783 
	C1006.586548,691.505981 1006.312012,691.922180 1006.037415,692.338379 
	C1014.895386,696.816223 1018.758423,705.356445 1023.714172,713.225830 
	C1022.837341,714.345215 1021.892212,715.551697 1019.937134,718.047424 
	C1024.926636,718.927551 1028.783936,719.607910 1031.173950,720.029480 
	C1032.056274,724.936829 1032.576416,728.977905 1033.648926,732.866638 
	C1033.875122,733.686523 1036.668335,734.765991 1037.346802,734.317261 
	C1039.649048,732.794128 1041.802002,730.852966 1043.525391,728.684692 
	C1047.899170,723.181396 1054.083008,723.323914 1058.114136,729.250061 
	C1051.831909,746.095642 1042.356934,761.078003 1030.957886,774.838318 
	C1009.378662,800.887451 982.861450,820.003906 950.328613,830.630371 
	C950.133118,828.811646 950.113403,826.370056 950.622498,826.254272 
	C959.031189,824.342407 962.257202,817.634521 965.110229,810.732361 
	C965.991821,808.599426 965.801147,806.023254 966.101379,803.650024 
	C965.664978,803.871704 965.228577,804.093384 964.792175,804.315125 
	C961.497314,801.814697 958.018616,799.515503 954.977234,796.737610 
	C953.184143,795.099915 952.083069,792.996216 949.235596,795.008179 
	C948.917542,795.232971 946.560425,793.681641 946.627808,793.136841 
	C946.840454,791.417175 947.382202,789.471619 948.466980,788.173767 
	C952.684814,783.126953 952.146423,777.366089 949.673767,772.401062 
	C945.379700,763.778687 946.108948,755.207947 948.002075,746.459778 
	C949.212952,740.864075 953.425659,743.333984 956.413086,744.183716 
	C958.905640,744.892578 962.158447,745.986389 959.719238,750.142334 
	C959.217651,750.996826 960.478943,752.886108 960.927673,754.298401 
	C962.051758,753.927734 963.630859,753.886597 964.193481,753.109558 
	C965.044312,751.934448 966.022522,749.663635 965.477905,748.882996 
	C963.640808,746.249451 961.155823,744.067810 959.401001,742.221069 
	C959.994141,739.187744 961.214905,736.677368 960.775696,734.502258 
	C959.364624,727.513672 960.787659,721.903503 966.763062,717.624878 
	C967.908569,716.804688 969.323547,715.268005 969.298401,714.090027 
	C969.171692,708.162781 974.320374,706.726013 977.608948,703.737610 
	C979.805054,701.741821 982.255554,700.024292 984.433838,698.010864 
	C987.239624,695.417236 985.689209,693.053772 983.405151,691.397095 
	C979.970276,688.905640 977.480713,689.719421 976.227051,693.872986 
	C974.519714,699.529846 971.558228,703.075745 965.345459,704.423523 
	C963.242065,704.879822 960.539612,708.937134 960.512573,711.375427 
	C960.439514,717.965210 958.886780,720.519470 952.446289,721.000122 
	C949.556458,721.215759 942.760986,726.364136 942.383728,728.623657 
	C941.134644,736.105957 933.423157,738.725525 926.789612,733.774658 
	C927.606995,733.248718 928.200684,732.947388 928.792053,732.641724 
	C968.351074,712.194214 984.837891,664.924744 966.377930,625.182190 
	C949.258972,588.326782 905.221619,565.153687 860.609680,584.199158 
	C852.062805,587.847961 844.107910,593.575317 836.936523,599.601318 
	C824.347107,610.179993 817.217957,624.483215 812.212097,640.085083 
	C809.362244,640.399536 806.388245,639.975525 804.735596,641.256348 
	C800.226990,644.750732 794.455444,647.649536 794.952820,654.930481 
	C795.021179,655.930664 793.827271,656.957336 793.559875,658.055115 
	C793.215759,659.467712 792.584595,661.372375 793.206482,662.336609 
	C794.354675,664.116577 796.161438,665.692749 798.051636,666.639709 
	C798.625000,666.927002 800.852051,665.106323 801.496521,663.833435 
	C803.349670,660.173401 806.458008,659.883362 809.952026,660.444336 
	C810.098267,663.896851 810.174316,666.902100 809.865967,670.062744 
	C804.436768,670.378113 801.101379,672.554871 799.473572,677.626160 
	C798.935181,679.303589 796.222168,680.218140 795.478577,681.910034 
	C794.393860,684.378296 792.792297,688.227783 793.868469,689.741028 
	C797.356750,694.646484 796.439148,699.313232 794.395874,703.867859 
	C792.554626,707.972290 789.388855,711.470764 787.422791,715.534302 
	C785.442932,719.626343 784.273376,724.104858 782.653931,728.378113 
	C780.854675,733.125916 779.364258,737.880737 780.499146,743.066284 
	C780.695984,743.965698 780.682983,745.042847 780.377869,745.899353 
	C777.994812,752.589539 772.057861,757.418091 770.553040,764.624207 
	C770.348206,765.604858 769.075867,766.371521 768.276672,767.217285 
	C766.829224,768.749084 765.365784,770.265747 763.979675,771.714905 
	C766.976440,775.752625 766.933411,775.746582 766.137390,781.435730 
	C766.008118,782.359558 766.761902,783.438904 766.549988,784.310974 
	C766.308594,785.304871 765.442566,786.146912 764.848022,787.054993 
	C762.586243,784.771606 760.324463,782.488220 757.956543,779.511597 
	C757.115967,778.252930 756.381470,777.687561 755.646973,777.122253 
z"/>
<path fill="#293850" opacity="1.000000" stroke="none" 
	d="
M1058.374512,728.995422 
	C1054.083008,723.323914 1047.899170,723.181396 1043.525391,728.684692 
	C1041.802002,730.852966 1039.649048,732.794128 1037.346802,734.317261 
	C1036.668335,734.765991 1033.875122,733.686523 1033.648926,732.866638 
	C1032.576416,728.977905 1032.056274,724.936829 1031.173950,720.029480 
	C1028.783936,719.607910 1024.926636,718.927551 1019.937134,718.047424 
	C1021.892212,715.551697 1022.837341,714.345215 1023.714172,713.225830 
	C1018.758423,705.356445 1014.895386,696.816223 1006.037415,692.338379 
	C1006.312012,691.922180 1006.586548,691.505981 1006.861145,691.089783 
	C1010.282776,692.627808 1013.758606,694.057434 1017.110779,695.734314 
	C1020.464233,697.411804 1022.944519,696.527161 1022.819580,692.876343 
	C1022.715149,689.823730 1021.291199,686.791138 1020.287170,683.804993 
	C1019.775513,682.283447 1018.902527,680.883423 1018.164062,679.369385 
	C1016.665588,679.083923 1015.129944,678.791443 1012.944092,678.375000 
	C1015.651245,677.007446 1018.484009,676.464722 1019.535522,674.798096 
	C1020.609863,673.095093 1019.702454,670.250916 1020.077209,667.974548 
	C1020.837952,663.353699 1022.134033,658.806641 1022.635620,654.167114 
	C1022.772522,652.901184 1021.087219,651.142883 1019.824890,650.121277 
	C1018.932373,649.398926 1017.343445,649.536926 1015.727417,648.695251 
	C1024.859131,645.968811 1019.804260,638.658264 1020.520264,633.955872 
	C1021.476929,627.672791 1014.987366,624.449158 1009.972839,621.057007 
	C1013.244446,614.686768 1006.122681,613.830933 1004.224182,610.104614 
	C1003.085510,607.869568 1001.555298,605.668640 1001.105225,603.281799 
	C1000.097412,597.937378 999.719971,592.476746 998.924622,587.087280 
	C998.773865,586.065857 998.052490,584.981201 997.296692,584.222168 
	C994.132507,581.044250 993.017639,576.197937 995.916687,573.422180 
	C998.567383,570.884155 998.039612,568.970215 996.020508,567.229431 
	C992.762390,564.420349 989.104248,562.075134 984.816040,558.952148 
	C984.366760,561.447510 984.064087,562.493713 984.009705,563.552673 
	C983.860779,566.451477 982.310120,567.282776 979.658691,566.757202 
	C974.769531,565.787964 970.087524,564.932983 965.439514,568.381592 
	C964.013184,569.439880 960.796143,568.273743 958.456543,567.826233 
	C957.408813,567.625854 956.560242,566.304443 955.522095,566.147522 
	C950.707764,565.419617 950.147034,564.297974 954.494629,561.394714 
	C955.419312,560.777222 955.017578,557.897400 954.870483,556.088928 
	C954.813171,555.384399 953.433411,554.103882 953.233887,554.206726 
	C952.054138,554.814819 951.146851,555.968872 949.955566,556.533447 
	C947.649597,557.626099 945.076660,559.440002 942.870972,559.130005 
	C940.195435,558.753906 936.251465,558.049744 936.954346,553.351196 
	C937.134094,552.149902 936.746094,550.863708 935.790527,549.476257 
	C935.229187,550.947693 934.667847,552.419128 933.948792,554.303894 
	C933.097046,553.601807 932.465820,553.315735 932.203918,552.830322 
	C928.770813,546.468079 926.460022,545.392883 920.035706,548.058289 
	C916.346619,549.588928 914.734863,548.310730 913.976990,544.854248 
	C913.658386,543.400574 913.226379,541.962952 913.027710,540.493469 
	C912.323853,535.288147 911.676392,534.851624 906.397339,536.274475 
	C903.226257,537.129211 896.601562,534.042053 894.982422,530.955078 
	C891.706665,524.709778 890.856140,524.503845 884.000366,525.999634 
	C881.790649,526.481750 879.302124,525.685791 877.010254,525.480774 
	C875.130676,527.575134 873.030212,529.668762 871.265381,532.014771 
	C870.639221,532.846985 870.704773,534.289795 870.670227,535.460144 
	C870.562012,539.128479 867.471985,541.854126 862.931091,541.434753 
	C862.931091,537.172119 863.013367,532.793945 862.869507,528.423157 
	C862.836182,527.410156 862.275696,525.968262 861.509644,525.555481 
	C860.793640,525.169678 859.198669,525.580872 858.516785,526.210876 
	C857.888428,526.791260 857.771240,528.132080 857.787781,529.131958 
	C857.799194,529.822937 858.421143,530.503723 858.760620,531.170044 
	C858.193237,531.524109 857.814331,531.906067 857.667419,531.831421 
	C850.187317,528.030762 843.214539,533.106873 835.948792,533.231018 
	C834.535522,533.255188 833.146301,535.880615 831.782898,537.340637 
	C830.008423,539.240906 828.285889,541.189636 826.508606,543.087219 
	C825.967285,543.665161 825.195618,544.053162 824.739075,544.680664 
	C820.323792,550.749023 814.638000,556.316711 811.898193,563.074646 
	C808.364990,571.789368 800.748047,577.902222 798.811401,587.653381 
	C795.871094,602.457886 792.179932,617.220459 787.276001,631.473877 
	C785.376892,636.993835 785.578918,642.114868 784.794922,647.438354 
	C784.012756,652.750061 781.561340,657.801941 780.029114,663.022705 
	C779.158630,665.988464 778.653442,669.062256 778.002075,672.091370 
	C776.514404,679.009521 774.634338,685.873108 773.648254,692.862549 
	C772.038025,704.276733 767.072327,714.184082 761.759277,724.200562 
	C758.507263,730.331482 757.531921,737.628113 754.834045,744.109802 
	C753.089905,748.299927 750.066895,751.955017 747.643494,755.866333 
	C746.714905,757.365112 745.860107,758.909546 744.948242,760.811768 
	C740.543762,754.689819 736.162781,748.189392 732.104492,741.373474 
	C736.529480,743.612183 741.269653,743.393005 743.330811,739.876465 
	C745.843567,735.589355 750.231812,731.970825 749.095398,726.044189 
	C748.906250,725.057922 749.710876,723.857910 750.124207,722.782837 
	C754.076660,712.502686 758.884155,702.459473 761.790955,691.892761 
	C765.312256,679.092468 766.268799,665.602112 772.237366,653.428711 
	C772.860413,652.157959 772.774475,650.534729 772.993469,649.071411 
	C774.275574,640.505493 773.947937,631.841614 779.163086,623.856934 
	C782.308044,619.041870 783.171143,612.364624 783.837036,606.387939 
	C784.883545,596.993958 785.763916,587.700134 789.468079,578.838745 
	C791.853943,573.131165 790.398193,565.845825 796.583496,561.668701 
	C796.906189,561.450745 796.885315,560.744934 797.055908,560.277771 
	C799.124817,554.613037 799.441772,548.103943 805.104309,544.159790 
	C805.816101,543.664062 805.842285,542.057312 806.017517,540.938965 
	C806.933655,535.090515 807.817932,529.794006 813.442261,525.629150 
	C819.698303,520.996460 824.689209,514.629395 826.189880,506.353180 
	C826.346008,505.491974 827.695129,504.179688 828.450745,504.206451 
	C832.399841,504.346283 834.704102,502.796204 835.603455,498.855103 
	C836.301147,495.797699 837.395142,492.830750 838.289062,489.902252 
	C834.855469,489.902252 832.403870,489.902252 829.952271,489.902252 
	C843.975525,483.755859 858.817505,480.816528 873.911987,479.268250 
	C960.993042,470.336243 1041.859497,525.454468 1065.314697,609.687439 
	C1072.609619,635.885071 1074.525391,662.575439 1069.624878,689.315063 
	C1067.175781,702.679504 1062.373169,715.612610 1058.374512,728.995422 
z"/>
<path fill="#213047" opacity="1.000000" stroke="none" 
	d="
M764.986450,787.365601 
	C765.442566,786.146912 766.308594,785.304871 766.549988,784.310974 
	C766.761902,783.438904 766.008118,782.359558 766.137390,781.435730 
	C766.933411,775.746582 766.976440,775.752625 763.979675,771.714905 
	C765.365784,770.265747 766.829224,768.749084 768.276672,767.217285 
	C769.075867,766.371521 770.348206,765.604858 770.553040,764.624207 
	C772.057861,757.418091 777.994812,752.589539 780.377869,745.899353 
	C780.682983,745.042847 780.695984,743.965698 780.499146,743.066284 
	C779.364258,737.880737 780.854675,733.125916 782.653931,728.378113 
	C784.273376,724.104858 785.442932,719.626343 787.422791,715.534302 
	C789.388855,711.470764 792.554626,707.972290 794.395874,703.867859 
	C796.439148,699.313232 797.356750,694.646484 793.868469,689.741028 
	C792.792297,688.227783 794.393860,684.378296 795.478577,681.910034 
	C796.222168,680.218140 798.935181,679.303589 799.473572,677.626160 
	C801.101379,672.554871 804.436768,670.378113 810.217529,670.206421 
	C811.278137,671.473022 811.689026,672.736450 811.914734,674.032043 
	C817.551941,706.391663 842.362915,732.233765 874.421326,739.217468 
	C892.386719,743.131226 909.707397,740.968018 926.564819,733.997314 
	C933.423157,738.725525 941.134644,736.105957 942.383728,728.623657 
	C942.760986,726.364136 949.556458,721.215759 952.446289,721.000122 
	C958.886780,720.519470 960.439514,717.965210 960.512573,711.375427 
	C960.539612,708.937134 963.242065,704.879822 965.345459,704.423523 
	C971.558228,703.075745 974.519714,699.529846 976.227051,693.872986 
	C977.480713,689.719421 979.970276,688.905640 983.405151,691.397095 
	C985.689209,693.053772 987.239624,695.417236 984.433838,698.010864 
	C982.255554,700.024292 979.805054,701.741821 977.608948,703.737610 
	C974.320374,706.726013 969.171692,708.162781 969.298401,714.090027 
	C969.323547,715.268005 967.908569,716.804688 966.763062,717.624878 
	C960.787659,721.903503 959.364624,727.513672 960.775696,734.502258 
	C961.214905,736.677368 959.994141,739.187744 959.401001,742.221069 
	C961.155823,744.067810 963.640808,746.249451 965.477905,748.882996 
	C966.022522,749.663635 965.044312,751.934448 964.193481,753.109558 
	C963.630859,753.886597 962.051758,753.927734 960.927673,754.298401 
	C960.478943,752.886108 959.217651,750.996826 959.719238,750.142334 
	C962.158447,745.986389 958.905640,744.892578 956.413086,744.183716 
	C953.425659,743.333984 949.212952,740.864075 948.002075,746.459778 
	C946.108948,755.207947 945.379700,763.778687 949.673767,772.401062 
	C952.146423,777.366089 952.684814,783.126953 948.466980,788.173767 
	C947.382202,789.471619 946.840454,791.417175 946.627808,793.136841 
	C946.560425,793.681641 948.917542,795.232971 949.235596,795.008179 
	C952.083069,792.996216 953.184143,795.099915 954.977234,796.737610 
	C958.018616,799.515503 961.497314,801.814697 964.792175,804.315125 
	C965.228577,804.093384 965.664978,803.871704 966.101379,803.650024 
	C965.801147,806.023254 965.991821,808.599426 965.110229,810.732361 
	C962.257202,817.634521 959.031189,824.342407 950.622498,826.254272 
	C950.113403,826.370056 950.133118,828.811646 949.951660,830.539062 
	C944.605652,832.639465 939.214722,834.371765 933.218506,835.789612 
	C929.637085,831.759155 925.813049,831.353638 921.976440,832.344055 
	C920.848328,834.793457 919.919983,836.809204 918.991638,838.824951 
	C888.979553,843.571838 859.701599,840.526917 831.226257,830.133179 
	C806.048767,820.943176 784.030334,806.699097 764.986450,787.365601 
M925.289490,736.645569 
	C921.756348,737.750916 918.223145,738.856323 914.027893,740.168823 
	C920.779419,742.934265 923.438354,742.099487 925.289490,736.645569 
z"/>
<path fill="#05CA7F" opacity="1.000000" stroke="none" 
	d="
M371.195007,356.804779 
	C370.480103,358.629059 369.946716,360.566162 368.685455,361.676361 
	C365.259918,364.691620 363.282013,368.235138 362.921844,372.799286 
	C362.841766,373.813965 362.173920,375.346710 361.392822,375.648987 
	C356.718964,377.457855 356.972931,381.266388 356.950012,385.193695 
	C356.931793,388.313751 357.638031,392.517548 355.959839,394.326111 
	C352.345978,398.220764 349.364075,403.548218 342.979431,404.077789 
	C341.690216,404.184692 339.707825,404.980896 339.414124,405.897858 
	C338.986237,407.233643 339.250549,409.653503 340.186615,410.401733 
	C342.974823,412.630585 346.143555,414.444275 349.328644,416.103394 
	C356.502350,419.840210 357.602020,424.193298 353.242310,430.750427 
	C351.940948,432.707733 351.693085,435.348541 350.845154,437.632629 
	C350.512268,438.529449 349.969574,439.406586 349.331451,440.122498 
	C344.982117,445.001984 344.965759,444.987396 350.672577,448.421204 
	C349.704376,450.836548 348.713623,453.308136 347.560638,456.184479 
	C351.276672,456.867279 355.014221,456.527802 357.011169,458.230133 
	C358.759674,459.720673 358.552612,463.505249 359.443268,467.263031 
	C360.265808,467.492310 362.087769,468.040192 363.931641,468.500366 
	C365.205536,468.818298 366.509705,469.014984 367.800323,469.265869 
	C367.291626,470.581085 367.127106,472.312164 366.179199,473.096497 
	C365.197784,473.908539 363.442596,474.094696 362.050812,474.028778 
	C359.985565,473.930878 357.938232,473.050629 355.890503,473.076508 
	C352.303406,473.121857 350.483398,476.862976 352.638336,479.760956 
	C353.990540,481.579437 355.701721,483.221558 357.522858,484.579193 
	C360.144714,486.533813 363.013092,488.157745 365.873077,489.984711 
	C369.999664,487.781128 374.676819,485.200958 379.443604,482.798676 
	C380.573700,482.229156 382.103455,481.842987 383.269714,482.122375 
	C384.493713,482.415588 385.501862,483.609772 386.604340,484.410156 
	C385.826141,485.265228 385.208557,486.475006 384.241486,486.912872 
	C380.414459,488.645447 379.592834,492.061310 383.003235,494.258881 
	C387.140900,496.925049 389.624969,498.791321 386.767395,504.720184 
	C385.328888,507.704773 388.521973,512.919312 389.613953,517.127197 
	C389.964508,518.477966 390.293640,519.834290 390.632568,521.188110 
	C389.399231,521.283569 388.153595,521.299805 386.934875,521.489258 
	C383.318359,522.051392 379.204773,520.214111 376.177734,523.819519 
	C375.685638,524.405640 374.478302,524.391174 372.919128,524.859009 
	C374.405060,520.198853 372.936737,515.259338 377.812775,512.470764 
	C378.512085,512.070862 378.977722,510.264618 378.676910,509.421112 
	C378.424561,508.713470 376.871826,508.033386 375.937653,508.087036 
	C373.165100,508.246185 370.409821,509.104248 367.655029,509.071869 
	C364.353241,509.033051 360.846252,508.935669 357.812042,507.819702 
	C353.429443,506.207886 350.908905,508.111572 348.395447,511.070831 
	C347.430176,512.207397 346.387848,513.371338 345.150299,514.162537 
	C343.159607,515.435303 341.437469,515.643677 340.980499,512.453613 
	C340.372681,508.210907 335.699036,504.840759 331.796417,503.627594 
	C329.480530,502.907654 327.087250,500.080719 326.205688,497.662689 
	C324.928864,494.160461 324.039551,492.543243 319.956360,494.251343 
	C316.131470,495.851349 315.544769,492.909668 314.876648,489.810516 
	C314.270416,486.998474 312.756500,484.323975 311.257660,481.819244 
	C311.005249,481.397461 308.800446,482.143982 307.497711,482.350708 
	C308.084900,483.413147 308.476440,484.675049 309.306793,485.489685 
	C310.450806,486.611908 311.926361,487.396179 312.717804,487.947540 
	C308.135620,489.847595 304.319061,491.651947 300.336182,492.943329 
	C299.178131,493.318817 297.117249,492.642639 296.221252,491.719574 
	C294.545807,489.993530 293.419617,487.734344 291.437286,484.753052 
	C291.580994,484.276306 292.126770,482.466034 292.672546,480.655762 
	C292.263367,480.365143 291.854187,480.074524 291.445038,479.783936 
	C290.635864,480.944641 289.848297,482.121185 289.011566,483.261688 
	C288.137299,484.453400 287.215759,485.610443 286.314880,486.782654 
	C286.092102,485.191589 285.765472,483.604492 285.704529,482.007233 
	C285.684021,481.470032 286.338898,480.907074 287.051025,479.773193 
	C284.777222,478.005737 282.390564,476.399231 280.352448,474.431610 
	C279.637177,473.741119 279.267395,471.974884 279.618988,471.025391 
	C280.917725,467.518005 282.680573,464.184875 284.055237,460.701874 
	C284.484650,459.613861 284.513458,458.169159 284.153290,457.076385 
	C284.028168,456.696716 282.175690,456.840546 281.111298,456.829712 
	C280.117737,456.819580 279.113861,457.035675 278.130341,456.956268 
	C268.991180,456.218475 266.741486,458.771606 268.904602,467.934265 
	C267.794556,468.824890 266.561859,469.813873 265.667023,470.531830 
	C267.173920,477.340973 267.856201,484.155029 270.274048,490.284454 
	C272.624176,496.242218 276.753662,501.498108 280.048950,506.974304 
	C278.022705,509.016571 275.705444,511.352142 273.093262,513.888550 
	C271.222809,511.295807 269.647278,508.502197 268.392090,505.287048 
	C271.873444,501.451141 268.860413,499.654633 266.576172,496.440948 
	C266.263245,498.745544 266.098694,499.957520 265.934113,501.169525 
	C258.080597,486.736115 250.172409,472.332123 242.384750,457.863251 
	C225.611237,426.699249 208.876236,395.514465 192.177139,364.310547 
	C187.219757,355.047150 190.245468,350.096252 200.849457,350.091492 
	C251.797073,350.068573 302.744690,350.091614 353.692322,350.097778 
	C360.273987,350.098572 366.122772,352.070312 371.195007,356.804779 
z"/>
<path fill="#04B272" opacity="1.000000" stroke="none" 
	d="
M594.846497,437.673187 
	C611.400513,409.375824 633.212402,386.293274 662.110718,370.375549 
	C686.325806,357.037476 712.213989,349.991333 739.988831,350.071045 
	C776.793823,350.176697 813.602966,350.371948 850.402222,349.901123 
	C859.559204,349.783966 864.381104,354.996033 859.216064,364.551758 
	C847.751099,385.762726 837.375488,407.560242 826.054016,428.851898 
	C819.132446,441.869080 807.949097,449.000519 792.896362,449.167908 
	C782.239197,449.286407 771.579651,449.184875 760.459290,448.660431 
	C759.664795,445.020538 759.634216,441.826752 758.885010,438.811523 
	C758.442871,437.032043 757.184937,434.672211 755.714966,434.123260 
	C753.740601,433.385925 751.194397,434.041626 748.920776,434.320312 
	C748.148315,434.414978 747.457947,435.179352 746.547058,435.752869 
	C746.294006,434.839569 746.035950,434.367920 746.054565,433.907471 
	C746.383667,425.784546 745.597717,425.005035 736.965271,425.000397 
	C732.849915,424.998199 728.734558,425.000000 724.769714,425.000000 
	C723.013184,416.956360 719.992432,415.397980 712.714478,418.090424 
	C711.347107,418.596283 709.803894,418.605194 708.392700,419.017731 
	C703.575500,420.426117 698.792908,421.953339 693.972168,423.349274 
	C691.947327,423.935638 689.137573,425.400482 687.920349,424.596100 
	C680.834534,419.913574 675.408508,420.995575 668.952759,426.579956 
	C663.667114,431.152069 656.485352,433.523987 650.166931,436.913635 
	C646.552124,438.852905 643.182495,441.628021 639.336548,442.650757 
	C635.518494,443.666016 631.234070,442.817566 627.168030,443.039917 
	C622.687744,443.284912 618.840576,444.851318 616.077454,448.734772 
	C613.577271,452.248718 605.273682,454.231018 601.652588,452.195740 
	C600.527039,451.563080 599.047058,449.954376 599.171997,448.976837 
	C599.767395,444.318268 597.068054,441.128296 594.846497,437.673187 
z"/>
<path fill="#0BB677" opacity="1.000000" stroke="none" 
	d="
M594.559937,437.867737 
	C597.068054,441.128296 599.767395,444.318268 599.171997,448.976837 
	C599.047058,449.954376 600.527039,451.563080 601.652588,452.195740 
	C605.273682,454.231018 613.577271,452.248718 616.077454,448.734772 
	C618.840576,444.851318 622.687744,443.284912 627.168030,443.039917 
	C631.234070,442.817566 635.518494,443.666016 639.336548,442.650757 
	C643.182495,441.628021 646.552124,438.852905 650.166931,436.913635 
	C656.485352,433.523987 663.667114,431.152069 668.952759,426.579956 
	C675.408508,420.995575 680.834534,419.913574 687.920349,424.596100 
	C689.137573,425.400482 691.947327,423.935638 693.972168,423.349274 
	C698.792908,421.953339 703.575500,420.426117 708.392700,419.017731 
	C709.803894,418.605194 711.347107,418.596283 712.714478,418.090424 
	C719.992432,415.397980 723.013184,416.956360 724.769714,425.000000 
	C728.734558,425.000000 732.849915,424.998199 736.965271,425.000397 
	C745.597717,425.005035 746.383667,425.784546 746.054565,433.907471 
	C746.035950,434.367920 746.294006,434.839569 746.547058,435.752869 
	C747.457947,435.179352 748.148315,434.414978 748.920776,434.320312 
	C751.194397,434.041626 753.740601,433.385925 755.714966,434.123260 
	C757.184937,434.672211 758.442871,437.032043 758.885010,438.811523 
	C759.634216,441.826752 759.664795,445.020538 759.997498,448.571960 
	C755.651550,449.095398 751.305603,449.186127 746.265381,448.899902 
	C743.716064,448.972046 741.860962,449.421082 740.005920,449.870087 
	C730.943970,453.051636 721.882019,456.233154 712.450500,459.127563 
	C710.378723,454.551941 704.742371,452.352417 699.261597,453.340485 
	C691.475342,454.744263 683.608154,455.695343 675.811707,457.048279 
	C672.895386,457.554382 669.866089,458.224365 667.260864,459.551086 
	C660.325500,463.083008 653.545166,466.930054 646.792542,470.807373 
	C640.069153,474.667877 632.854614,477.986389 626.927246,482.848999 
	C617.098450,490.912323 608.045898,499.936432 598.859436,508.756866 
	C596.785156,510.748444 595.383667,513.494202 593.880310,516.016663 
	C589.376465,523.573914 585.983826,532.075684 580.291504,538.574341 
	C572.311584,547.684509 569.584167,559.350037 562.628540,569.023682 
	C560.177063,569.705505 558.089783,570.346619 556.004150,570.560608 
	C556.475830,565.906067 554.983826,562.657471 552.170410,559.341248 
	C549.740723,556.477356 548.811401,552.383850 546.916565,549.003296 
	C546.049866,547.456909 544.456848,546.317688 543.193176,544.993774 
	C552.225342,525.016846 561.197205,505.012360 570.315674,485.074921 
	C574.736267,475.409180 579.431580,465.869110 584.594116,456.180206 
	C587.989868,457.840088 590.633362,460.023041 593.668823,461.154510 
	C595.098816,461.687469 598.320068,460.677948 598.857483,459.507690 
	C599.513733,458.078827 598.538147,454.244965 597.687500,454.055237 
	C593.051941,453.021301 592.441284,448.562653 589.813843,445.917725 
	C591.300354,443.299255 592.786865,440.680786 594.559937,437.867737 
z"/>
<path fill="#354458" opacity="1.000000" stroke="none" 
	d="
M829.582642,489.914856 
	C832.403870,489.902252 834.855469,489.902252 838.289062,489.902252 
	C837.395142,492.830750 836.301147,495.797699 835.603455,498.855103 
	C834.704102,502.796204 832.399841,504.346283 828.450745,504.206451 
	C827.695129,504.179688 826.346008,505.491974 826.189880,506.353180 
	C824.689209,514.629395 819.698303,520.996460 813.442261,525.629150 
	C807.817932,529.794006 806.933655,535.090515 806.017517,540.938965 
	C805.842285,542.057312 805.816101,543.664062 805.104309,544.159790 
	C799.441772,548.103943 799.124817,554.613037 797.055908,560.277771 
	C796.885315,560.744934 796.906189,561.450745 796.583496,561.668701 
	C790.398193,565.845825 791.853943,573.131165 789.468079,578.838745 
	C785.763916,587.700134 784.883545,596.993958 783.837036,606.387939 
	C783.171143,612.364624 782.308044,619.041870 779.163086,623.856934 
	C773.947937,631.841614 774.275574,640.505493 772.993469,649.071411 
	C772.774475,650.534729 772.860413,652.157959 772.237366,653.428711 
	C766.268799,665.602112 765.312256,679.092468 761.790955,691.892761 
	C758.884155,702.459473 754.076660,712.502686 750.124207,722.782837 
	C749.710876,723.857910 748.906250,725.057922 749.095398,726.044189 
	C750.231812,731.970825 745.843567,735.589355 743.330811,739.876465 
	C741.269653,743.393005 736.529480,743.612183 732.036865,741.006531 
	C728.465454,733.665527 725.284485,726.375977 722.460938,718.539490 
	C725.914978,710.703918 729.123108,703.459595 732.047485,696.102478 
	C733.063965,693.545105 733.346741,690.700806 734.018921,688.001038 
	C737.010986,675.983582 739.951538,663.952576 743.049255,651.962341 
	C745.609314,642.052979 748.920959,632.303406 750.889404,622.284485 
	C753.307495,609.977173 754.158142,597.359863 756.622192,585.064087 
	C760.098328,567.717834 764.348755,550.523438 768.478577,533.314575 
	C769.211609,530.260010 768.951782,528.223572 765.966431,526.935364 
	C779.839844,518.079834 793.560242,508.970306 807.652588,500.478119 
	C814.479553,496.364105 822.004272,493.407867 829.582642,489.914856 
z"/>
<path fill="#0CC681" opacity="1.000000" stroke="none" 
	d="
M542.955200,545.279053 
	C544.456848,546.317688 546.049866,547.456909 546.916565,549.003296 
	C548.811401,552.383850 549.740723,556.477356 552.170410,559.341248 
	C554.983826,562.657471 556.475830,565.906067 556.003052,570.978638 
	C555.496155,581.203979 550.907349,589.481934 546.061646,596.641541 
	C540.299866,605.154602 536.448853,614.315552 532.490845,623.478210 
	C528.957520,631.657837 526.992737,640.500549 523.973145,648.920593 
	C520.722839,657.984009 516.974182,666.867493 513.581238,675.881531 
	C509.289368,687.283447 504.823029,698.636230 501.074219,710.218018 
	C499.506592,715.061279 499.654938,720.448608 498.902222,725.570801 
	C498.330048,729.464417 498.313904,733.667419 496.744263,737.142883 
	C492.562439,746.402527 488.903534,755.383728 491.890259,765.967224 
	C493.662018,772.245605 493.673706,779.004578 495.192291,785.376953 
	C496.003479,788.780884 498.686981,791.694641 499.906189,795.054382 
	C502.686951,802.717102 504.868195,810.601562 507.775513,818.211609 
	C508.625824,820.437256 510.996552,822.153076 512.856140,823.905396 
	C515.658691,826.546326 519.861511,828.155396 518.790649,833.305176 
	C517.676514,838.662903 519.961243,841.420898 525.673279,841.906494 
	C523.243347,846.076660 520.813416,850.246826 517.960693,854.843506 
	C517.395386,855.582397 517.252869,855.894653 517.110352,856.206909 
	C517.110352,856.206909 517.128174,856.146790 517.144775,856.174255 
	C515.408020,858.530334 513.654541,860.858948 512.310364,862.644043 
	C510.188049,861.704163 507.675690,860.919861 505.563599,859.528076 
	C504.372528,858.743286 503.344299,857.044373 503.094055,855.608887 
	C501.653290,847.344788 501.696289,847.531616 494.078674,845.900208 
	C489.310638,844.879089 489.415436,840.006775 488.084869,836.545410 
	C484.887024,828.226318 484.430145,818.970581 477.393097,812.003540 
	C473.821472,808.467407 471.362335,803.626526 473.440002,797.283142 
	C474.981110,792.577881 473.870300,787.018250 474.033295,781.842102 
	C474.129089,778.800659 474.833923,775.716858 474.499512,772.737976 
	C474.013947,768.412476 472.837036,764.164551 471.824341,759.249634 
	C474.559570,757.385925 476.188446,754.840393 473.676117,750.334351 
	C472.760803,748.692688 474.308167,744.147339 476.122131,742.804016 
	C481.405426,738.891479 479.997040,733.250061 480.892578,728.308350 
	C482.032257,722.019653 481.704681,715.410767 483.295654,709.273315 
	C484.926331,702.982544 488.178040,697.121277 490.580139,691.016846 
	C491.581940,688.471191 492.152313,685.759338 493.039948,683.164429 
	C495.045837,677.300415 497.409729,671.541077 499.070404,665.583679 
	C500.047333,662.078979 500.276367,658.272339 500.228912,654.609497 
	C500.198975,652.298584 500.789246,651.258423 502.378754,649.414062 
	C506.068665,645.132385 508.790222,639.936890 511.444550,634.870911 
	C513.114502,631.683716 514.336487,628.138367 515.049683,624.610229 
	C515.684509,621.469727 515.501282,618.125671 515.377136,614.882996 
	C515.292053,612.662292 514.689270,610.461365 514.033203,608.060547 
	C523.404663,587.101135 533.060913,566.332764 542.955200,545.279053 
z"/>
<path fill="#30CC92" opacity="1.000000" stroke="none" 
	d="
M698.121765,472.360779 
	C693.990356,479.451874 689.858948,486.542969 685.025513,493.842041 
	C672.762451,493.093445 662.884399,498.315002 653.309204,503.442474 
	C646.899353,506.874878 641.528442,512.251648 635.707153,516.777039 
	C632.703308,519.112122 629.139648,521.021912 626.849976,523.928284 
	C618.390259,534.666321 610.047058,545.524902 602.246948,556.746155 
	C594.007263,568.599792 587.096863,581.153748 581.867249,594.795837 
	C574.894348,612.985596 566.183777,630.458496 561.474854,649.559814 
	C558.556152,661.399048 553.887756,672.796936 550.425415,684.517212 
	C549.035522,689.222229 548.669739,694.246765 548.022583,699.150269 
	C547.116821,706.013245 546.434998,712.905640 545.562134,719.773254 
	C544.712952,726.454224 542.672974,733.027649 545.650085,739.816772 
	C546.799622,742.438171 546.836426,745.646851 546.949646,748.604492 
	C547.266113,756.867310 552.074402,762.800598 557.192078,768.488403 
	C558.191833,769.599487 560.475159,769.555786 562.166504,770.044739 
	C560.887268,773.221985 559.843994,776.521179 558.278320,779.550354 
	C555.298401,785.316101 552.020020,790.927551 548.197388,796.770264 
	C546.741577,796.391724 545.802856,795.978088 545.191650,795.278320 
	C541.748962,791.336853 538.344055,787.360291 535.023376,783.315918 
	C534.202271,782.315857 533.529358,781.085022 533.148804,779.849182 
	C529.574707,768.242615 526.931519,756.541016 527.906921,744.200317 
	C528.430481,737.576355 527.828979,730.871094 528.056458,724.213562 
	C528.225647,719.262390 528.364868,714.202515 529.473877,709.412476 
	C532.261169,697.373474 535.186951,685.336121 538.810303,673.529236 
	C542.836853,660.408325 547.521667,647.479065 552.241394,634.583984 
	C557.639465,619.835510 563.283020,605.173828 569.036255,590.559692 
	C571.818481,583.492188 575.079102,576.612244 578.155273,569.661682 
	C579.734558,566.093323 581.384460,562.556152 583.277466,558.802856 
	C590.200806,546.801147 595.809326,534.233337 603.796265,523.422729 
	C611.442017,513.073853 621.455811,504.447968 630.621460,495.256805 
	C638.296692,487.560181 647.028442,481.404877 657.419128,477.707397 
	C663.308044,475.611877 669.423645,473.629791 674.661072,470.355286 
	C681.746704,465.925262 688.469482,469.882294 695.322510,469.833862 
	C696.249573,469.827332 697.188416,471.477661 698.121765,472.360779 
z"/>
<path fill="#4DD2A0" opacity="1.000000" stroke="none" 
	d="
M562.497314,769.977478 
	C560.475159,769.555786 558.191833,769.599487 557.192078,768.488403 
	C552.074402,762.800598 547.266113,756.867310 546.949646,748.604492 
	C546.836426,745.646851 546.799622,742.438171 545.650085,739.816772 
	C542.672974,733.027649 544.712952,726.454224 545.562134,719.773254 
	C546.434998,712.905640 547.116821,706.013245 548.022583,699.150269 
	C548.669739,694.246765 549.035522,689.222229 550.425415,684.517212 
	C553.887756,672.796936 558.556152,661.399048 561.474854,649.559814 
	C566.183777,630.458496 574.894348,612.985596 581.867249,594.795837 
	C587.096863,581.153748 594.007263,568.599792 602.246948,556.746155 
	C610.047058,545.524902 618.390259,534.666321 626.849976,523.928284 
	C629.139648,521.021912 632.703308,519.112122 635.707153,516.777039 
	C641.528442,512.251648 646.899353,506.874878 653.309204,503.442474 
	C662.884399,498.315002 672.762451,493.093445 684.785522,494.085358 
	C682.616699,499.547302 679.985962,504.973877 676.747498,510.708435 
	C672.003418,511.897461 667.715515,512.347351 663.758423,513.738464 
	C650.625427,518.355469 643.489136,529.875061 635.254944,539.838684 
	C625.785706,551.296814 616.997375,563.314941 610.871033,577.082947 
	C606.567505,586.754395 601.028992,595.901733 597.088684,605.703857 
	C589.629578,624.259888 582.783264,643.067993 576.004333,661.887390 
	C574.358459,666.456543 573.762512,671.446655 573.042725,676.296448 
	C572.025208,683.151917 571.914978,690.188171 570.378296,696.909668 
	C568.153931,706.639160 568.038086,716.130005 572.324219,725.108704 
	C574.427673,729.515015 573.535217,735.637451 579.182129,738.188354 
	C573.730774,748.762329 568.279480,759.336243 562.497314,769.977478 
z"/>
<path fill="#99C8BA" opacity="1.000000" stroke="none" 
	d="
M679.978027,532.977905 
	C687.383789,532.974121 694.789490,532.970337 702.719177,533.401428 
	C704.414490,534.528198 705.585815,535.220032 705.818176,535.357300 
	C702.768616,543.945557 699.484741,551.991333 697.098450,560.295044 
	C695.192322,566.927734 694.403503,573.879333 693.074402,580.680725 
	C691.404419,589.226685 688.049683,597.392456 688.915710,606.481384 
	C689.786316,615.618225 689.622681,624.853577 689.912292,634.045776 
	C686.814026,634.310242 683.700256,634.921448 680.619995,634.783569 
	C658.883728,633.810608 640.304626,640.606873 625.412842,656.762634 
	C624.975220,657.237427 624.361572,657.549927 623.174133,657.732910 
	C623.008667,651.689819 622.756042,645.666016 624.159546,640.056580 
	C626.395447,631.120789 629.839478,622.493469 632.568909,613.672668 
	C634.315063,608.029480 634.500122,601.548584 637.444397,596.691650 
	C650.684631,574.850037 662.231873,551.822083 679.978027,532.977905 
z"/>
<path fill="#15C986" opacity="1.000000" stroke="none" 
	d="
M525.886230,841.697571 
	C519.961243,841.420898 517.676514,838.662903 518.790649,833.305176 
	C519.861511,828.155396 515.658691,826.546326 512.856140,823.905396 
	C510.996552,822.153076 508.625824,820.437256 507.775513,818.211609 
	C504.868195,810.601562 502.686951,802.717102 499.906189,795.054382 
	C498.686981,791.694641 496.003479,788.780884 495.192291,785.376953 
	C493.673706,779.004578 493.662018,772.245605 491.890259,765.967224 
	C488.903534,755.383728 492.562439,746.402527 496.744263,737.142883 
	C498.313904,733.667419 498.330048,729.464417 498.902222,725.570801 
	C499.654938,720.448608 499.506592,715.061279 501.074219,710.218018 
	C504.823029,698.636230 509.289368,687.283447 513.581238,675.881531 
	C516.974182,666.867493 520.722839,657.984009 523.973145,648.920593 
	C526.992737,640.500549 528.957520,631.657837 532.490845,623.478210 
	C536.448853,614.315552 540.299866,605.154602 546.061646,596.641541 
	C550.907349,589.481934 555.496155,581.203979 556.001343,571.405701 
	C558.089783,570.346619 560.177063,569.705505 562.633057,569.428406 
	C563.896423,570.857849 564.606140,572.236572 565.736023,572.903748 
	C566.948181,573.619568 568.555420,573.666260 569.986816,574.377075 
	C566.639465,581.335449 563.285278,587.916443 559.954773,594.509399 
	C556.999023,600.360413 553.586548,606.037720 551.231018,612.122803 
	C546.578064,624.143127 542.498291,636.386047 538.218079,648.549683 
	C536.023132,654.787476 533.732361,660.999573 531.800171,667.319641 
	C529.497681,674.850891 528.354431,682.843445 525.236816,689.994446 
	C520.102417,701.771729 517.839050,713.979736 517.010803,726.598145 
	C516.732910,730.830933 517.027771,735.104248 516.690369,739.329468 
	C515.914307,749.047791 513.843750,758.799438 514.309082,768.440491 
	C514.747314,777.521667 517.294128,786.615601 523.407288,794.121826 
	C525.231018,796.361206 527.332397,798.908813 527.836121,801.591309 
	C529.511902,810.515686 534.527283,813.664978 542.290833,809.973572 
	C536.893616,820.478577 531.496399,830.983643 525.886230,841.697571 
z"/>
<path fill="#72D7B1" opacity="1.000000" stroke="none" 
	d="
M579.455627,737.984497 
	C573.535217,735.637451 574.427673,729.515015 572.324219,725.108704 
	C568.038086,716.130005 568.153931,706.639160 570.378296,696.909668 
	C571.914978,690.188171 572.025208,683.151917 573.042725,676.296448 
	C573.762512,671.446655 574.358459,666.456543 576.004333,661.887390 
	C582.783264,643.067993 589.629578,624.259888 597.088684,605.703857 
	C601.028992,595.901733 606.567505,586.754395 610.871033,577.082947 
	C616.997375,563.314941 625.785706,551.296814 635.254944,539.838684 
	C643.489136,529.875061 650.625427,518.355469 663.758423,513.738464 
	C667.715515,512.347351 672.003418,511.897461 676.589478,511.013855 
	C673.974548,517.772583 670.909912,524.533752 667.343140,531.645630 
	C663.465027,534.261414 659.932922,536.326965 656.740417,538.826294 
	C643.550171,549.152649 638.026978,565.145630 628.252563,578.028015 
	C623.949158,583.699707 621.749573,590.982727 618.685059,597.576172 
	C611.435120,613.174377 603.447998,628.492981 597.280273,644.510559 
	C592.622986,656.605469 590.114014,669.557983 587.097534,682.235596 
	C586.214233,685.948181 586.681519,690.034729 586.857361,693.935120 
	C587.159241,700.629395 587.640137,707.319275 588.250366,713.992310 
	C588.348206,715.062134 589.508606,716.034790 590.177734,717.052368 
	C586.694885,723.961792 583.211975,730.871216 579.455627,737.984497 
z"/>
<path fill="#86DCBB" opacity="1.000000" stroke="none" 
	d="
M590.434570,716.837097 
	C589.508606,716.034790 588.348206,715.062134 588.250366,713.992310 
	C587.640137,707.319275 587.159241,700.629395 586.857361,693.935120 
	C586.681519,690.034729 586.214233,685.948181 587.097534,682.235596 
	C590.114014,669.557983 592.622986,656.605469 597.280273,644.510559 
	C603.447998,628.492981 611.435120,613.174377 618.685059,597.576172 
	C621.749573,590.982727 623.949158,583.699707 628.252563,578.028015 
	C638.026978,565.145630 643.550171,549.152649 656.740417,538.826294 
	C659.932922,536.326965 663.465027,534.261414 667.171448,531.973816 
	C671.357178,532.264832 675.212463,532.578430 679.522888,532.934998 
	C662.231873,551.822083 650.684631,574.850037 637.444397,596.691650 
	C634.500122,601.548584 634.315063,608.029480 632.568909,613.672668 
	C629.839478,622.493469 626.395447,631.120789 624.159546,640.056580 
	C622.756042,645.666016 623.008667,651.689819 622.849976,657.808838 
	C623.181702,658.089905 623.031860,658.566528 622.558899,658.793457 
	C621.410156,660.037109 620.734375,661.053833 620.058594,662.070618 
	C610.269531,680.254333 600.480469,698.438110 590.434570,716.837097 
z"/>
<path fill="#76868E" opacity="1.000000" stroke="none" 
	d="
M690.387085,634.078064 
	C689.622681,624.853577 689.786316,615.618225 688.915710,606.481384 
	C688.049683,597.392456 691.404419,589.226685 693.074402,580.680725 
	C694.403503,573.879333 695.192322,566.927734 697.098450,560.295044 
	C699.484741,551.991333 702.768616,543.945557 705.818176,535.357300 
	C705.585815,535.220032 704.414490,534.528198 703.184204,533.514160 
	C712.207092,533.089172 721.289124,532.916199 730.370605,532.940796 
	C732.272278,532.945984 734.171997,533.679626 736.458984,534.755615 
	C736.542908,537.206238 736.317993,538.996338 735.924744,540.748657 
	C733.975464,549.434998 731.795898,558.074158 730.052917,566.801025 
	C728.091858,576.619995 727.180969,586.695007 724.590393,596.329895 
	C721.512024,607.778625 719.968994,619.266113 720.003906,631.045837 
	C720.016541,635.324219 718.517578,638.177795 713.593323,637.738831 
	C711.319702,636.698608 709.118347,635.014343 706.757751,634.749512 
	C701.501404,634.159668 696.165344,634.279602 690.387085,634.078064 
z"/>
<path fill="#536170" opacity="1.000000" stroke="none" 
	d="
M713.548340,638.155457 
	C718.517578,638.177795 720.016541,635.324219 720.003906,631.045837 
	C719.968994,619.266113 721.512024,607.778625 724.590393,596.329895 
	C727.180969,586.695007 728.091858,576.619995 730.052917,566.801025 
	C731.795898,558.074158 733.975464,549.434998 735.924744,540.748657 
	C736.317993,538.996338 736.542908,537.206238 736.740356,534.992737 
	C741.770020,533.441711 746.917847,532.387695 752.034790,531.200195 
	C755.066406,530.496582 758.049133,529.582397 761.583740,529.058533 
	C761.896790,530.477844 761.957764,532.413208 761.419678,532.597351 
	C756.897461,534.144531 756.747437,538.029480 755.949585,541.738647 
	C754.318787,549.320190 752.431396,556.846252 750.767700,564.421082 
	C749.104919,571.992126 746.844116,579.528015 746.154053,587.197083 
	C744.567139,604.834229 741.495728,622.154114 736.775635,639.178894 
	C733.821777,649.833069 730.502136,660.390625 727.119934,670.918762 
	C725.658875,675.466797 724.089111,680.108032 721.665222,684.167358 
	C720.357056,686.358032 717.142883,687.410583 714.788635,688.976624 
	C714.636536,688.606628 714.484436,688.236694 714.672729,687.425049 
	C714.730103,686.327332 714.447144,685.671265 714.164124,685.015259 
	C711.396606,669.570435 711.594788,654.083435 713.548340,638.155457 
z"/>
<path fill="#23CB8C" opacity="1.000000" stroke="none" 
	d="
M542.533447,809.746216 
	C534.527283,813.664978 529.511902,810.515686 527.836121,801.591309 
	C527.332397,798.908813 525.231018,796.361206 523.407288,794.121826 
	C517.294128,786.615601 514.747314,777.521667 514.309082,768.440491 
	C513.843750,758.799438 515.914307,749.047791 516.690369,739.329468 
	C517.027771,735.104248 516.732910,730.830933 517.010803,726.598145 
	C517.839050,713.979736 520.102417,701.771729 525.236816,689.994446 
	C528.354431,682.843445 529.497681,674.850891 531.800171,667.319641 
	C533.732361,660.999573 536.023132,654.787476 538.218079,648.549683 
	C542.498291,636.386047 546.578064,624.143127 551.231018,612.122803 
	C553.586548,606.037720 556.999023,600.360413 559.954773,594.509399 
	C563.285278,587.916443 566.639465,581.335449 570.331299,574.324219 
	C571.606384,572.624573 572.460266,571.288147 573.474548,570.087158 
	C576.617737,566.365356 579.821899,562.695068 583.002441,559.004883 
	C581.384460,562.556152 579.734558,566.093323 578.155273,569.661682 
	C575.079102,576.612244 571.818481,583.492188 569.036255,590.559692 
	C563.283020,605.173828 557.639465,619.835510 552.241394,634.583984 
	C547.521667,647.479065 542.836853,660.408325 538.810303,673.529236 
	C535.186951,685.336121 532.261169,697.373474 529.473877,709.412476 
	C528.364868,714.202515 528.225647,719.262390 528.056458,724.213562 
	C527.828979,730.871094 528.430481,737.576355 527.906921,744.200317 
	C526.931519,756.541016 529.574707,768.242615 533.148804,779.849182 
	C533.529358,781.085022 534.202271,782.315857 535.023376,783.315918 
	C538.344055,787.360291 541.748962,791.336853 545.191650,795.278320 
	C545.802856,795.978088 546.741577,796.391724 547.906616,796.957825 
	C546.448120,801.158386 544.612122,805.338623 542.533447,809.746216 
z"/>
<path fill="#20BF84" opacity="1.000000" stroke="none" 
	d="
M583.277466,558.802856 
	C579.821899,562.695068 576.617737,566.365356 573.474548,570.087158 
	C572.460266,571.288147 571.606384,572.624573 570.334717,573.952026 
	C568.555420,573.666260 566.948181,573.619568 565.736023,572.903748 
	C564.606140,572.236572 563.896423,570.857849 562.997192,569.387634 
	C569.584167,559.350037 572.311584,547.684509 580.291504,538.574341 
	C585.983826,532.075684 589.376465,523.573914 593.880310,516.016663 
	C595.383667,513.494202 596.785156,510.748444 598.859436,508.756866 
	C608.045898,499.936432 617.098450,490.912323 626.927246,482.848999 
	C632.854614,477.986389 640.069153,474.667877 646.792542,470.807373 
	C653.545166,466.930054 660.325500,463.083008 667.260864,459.551086 
	C669.866089,458.224365 672.895386,457.554382 675.811707,457.048279 
	C683.608154,455.695343 691.475342,454.744263 699.261597,453.340485 
	C704.742371,452.352417 710.378723,454.551941 712.103882,459.265381 
	C707.652100,463.789337 703.177368,467.888458 698.412231,472.174164 
	C697.188416,471.477661 696.249573,469.827332 695.322510,469.833862 
	C688.469482,469.882294 681.746704,465.925262 674.661072,470.355286 
	C669.423645,473.629791 663.308044,475.611877 657.419128,477.707397 
	C647.028442,481.404877 638.296692,487.560181 630.621460,495.256805 
	C621.455811,504.447968 611.442017,513.073853 603.796265,523.422729 
	C595.809326,534.233337 590.200806,546.801147 583.277466,558.802856 
z"/>
<path fill="#485567" opacity="1.000000" stroke="none" 
	d="
M714.763184,689.413940 
	C717.142883,687.410583 720.357056,686.358032 721.665222,684.167358 
	C724.089111,680.108032 725.658875,675.466797 727.119934,670.918762 
	C730.502136,660.390625 733.821777,649.833069 736.775635,639.178894 
	C741.495728,622.154114 744.567139,604.834229 746.154053,587.197083 
	C746.844116,579.528015 749.104919,571.992126 750.767700,564.421082 
	C752.431396,556.846252 754.318787,549.320190 755.949585,541.738647 
	C756.747437,538.029480 756.897461,534.144531 761.419678,532.597351 
	C761.957764,532.413208 761.896790,530.477844 761.978088,529.024292 
	C762.992554,528.085999 764.142517,527.477600 765.629395,526.902344 
	C768.951782,528.223572 769.211609,530.260010 768.478577,533.314575 
	C764.348755,550.523438 760.098328,567.717834 756.622192,585.064087 
	C754.158142,597.359863 753.307495,609.977173 750.889404,622.284485 
	C748.920959,632.303406 745.609314,642.052979 743.049255,651.962341 
	C739.951538,663.952576 737.010986,675.983582 734.018921,688.001038 
	C733.346741,690.700806 733.063965,693.545105 732.047485,696.102478 
	C729.123108,703.459595 725.914978,710.703918 722.415894,718.138306 
	C719.588196,708.806580 717.162903,699.328918 714.763184,689.413940 
z"/>
<path fill="#05CA7F" opacity="1.000000" stroke="none" 
	d="
M342.000946,644.360596 
	C342.460205,644.020325 343.094299,643.844788 343.435089,644.085083 
	C346.830566,646.479675 349.546631,650.052979 354.329437,650.010864 
	C354.816742,650.006531 355.486816,651.166321 355.781372,651.902283 
	C358.634918,659.031616 361.036530,666.375000 364.379547,673.263000 
	C366.434937,677.497986 369.921082,680.997620 369.199982,686.290222 
	C369.121979,686.862732 370.669434,687.741211 371.552826,688.346619 
	C377.304047,692.287964 378.173706,695.145996 376.623230,702.166992 
	C376.330627,703.492065 377.905945,706.497131 378.918121,706.642273 
	C386.919830,707.789001 386.184418,714.170654 386.920959,719.511475 
	C387.348267,722.610046 387.008514,725.814392 387.024841,729.427856 
	C382.303101,720.978638 377.570526,712.072693 372.974182,702.429138 
	C375.003418,695.436401 373.825897,693.519409 367.154083,691.994690 
	C358.782623,676.235901 350.411163,660.477051 342.000946,644.360596 
z"/>
<path fill="#05CA7F" opacity="1.000000" stroke="none" 
	d="
M388.817932,733.473633 
	C392.189606,730.130798 395.183228,730.738708 397.066528,734.692566 
	C399.271973,739.322815 400.799622,744.278198 403.046295,748.885315 
	C403.978882,750.797668 406.278900,752.000305 407.472412,753.840149 
	C408.742523,755.797852 409.589569,758.077698 410.332520,760.312927 
	C410.824249,761.792297 410.256866,763.909180 411.121674,764.925476 
	C413.687927,767.941528 412.616058,770.256470 410.173340,772.856934 
	C402.882965,759.976807 395.884308,746.904358 388.817932,733.473633 
z"/>
<path fill="#05CA7F" opacity="1.000000" stroke="none" 
	d="
M278.061432,524.347229 
	C280.142975,523.627686 281.622009,522.946106 279.982513,520.433838 
	C279.456085,519.627136 279.012268,518.680542 278.847809,517.742310 
	C278.544830,516.013733 278.476715,514.244019 278.310730,512.491455 
	C280.800903,512.764038 283.954163,512.191895 285.627411,513.505249 
	C288.204742,515.528198 289.767273,518.844116 291.715302,521.549011 
	C290.146667,525.900635 288.198456,525.658020 294.481628,535.005493 
	C290.573059,534.639465 287.498505,534.351501 283.969727,534.098267 
	C281.713806,530.987366 279.912079,527.841797 278.061432,524.347229 
z"/>
<path fill="#05CA7F" opacity="1.000000" stroke="none" 
	d="
M332.897308,627.494812 
	C333.917084,627.299500 335.050537,627.435059 336.582550,627.618225 
	C336.055939,624.580566 335.546570,621.642151 334.889008,617.848938 
	C339.025177,621.061523 343.069092,623.175476 345.502106,626.476685 
	C346.965363,628.462097 345.529358,632.372620 346.092285,635.283447 
	C346.908722,639.505188 343.652863,640.095032 341.083008,641.926514 
	C340.551788,641.797607 340.230164,641.347839 339.852295,640.338501 
	C339.554688,639.522705 339.313385,639.266541 339.072052,639.010315 
	C337.051697,635.282104 335.031342,631.553833 332.897308,627.494812 
z"/>
<path fill="#05CA7F" opacity="1.000000" stroke="none" 
	d="
M320.891357,604.628174 
	C323.447113,602.937500 326.207855,600.308350 328.578278,600.622620 
	C330.875092,600.927246 333.941711,603.966064 334.532135,606.336609 
	C335.200043,609.018066 334.320496,612.952026 332.591583,615.136658 
	C330.578400,617.680481 330.149017,619.759094 330.902466,622.938965 
	C327.556793,617.222168 324.241180,611.099792 320.891357,604.628174 
z"/>
<path fill="#05CA7F" opacity="1.000000" stroke="none" 
	d="
M287.784485,542.460999 
	C291.631836,540.733826 295.670105,539.580444 299.421722,537.817261 
	C300.406464,537.354492 300.502808,535.001343 301.252136,532.794922 
	C302.074860,533.537048 303.577759,534.286560 303.546356,534.965027 
	C303.371948,538.731628 303.039795,542.520630 302.357117,546.227417 
	C301.203613,552.490662 298.099518,553.660034 292.337372,550.061340 
	C290.603088,547.601868 289.235718,545.204407 287.784485,542.460999 
z"/>
<path fill="#05CA7F" opacity="1.000000" stroke="none" 
	d="
M400.225037,407.532288 
	C393.751709,409.634460 390.557526,407.029907 389.872101,400.244812 
	C389.574066,397.294586 388.453430,394.047180 386.677917,391.719116 
	C384.252991,388.539520 383.935638,385.830200 386.032867,382.234924 
	C390.752838,390.291199 395.447693,398.735107 400.225037,407.532288 
z"/>
<path fill="#05CA7F" opacity="1.000000" stroke="none" 
	d="
M448.208130,497.463806 
	C446.645416,497.053558 445.045197,496.304474 443.480438,495.487518 
	C441.681000,494.548126 439.912903,493.548645 436.862091,491.881958 
	C437.769287,487.310059 431.244110,481.851562 436.021973,475.039185 
	C440.303131,482.251831 444.244751,489.673401 448.208130,497.463806 
z"/>
<path fill="#04B272" opacity="1.000000" stroke="none" 
	d="
M589.513733,446.092896 
	C592.441284,448.562653 593.051941,453.021301 597.687500,454.055237 
	C598.538147,454.244965 599.513733,458.078827 598.857483,459.507690 
	C598.320068,460.677948 595.098816,461.687469 593.668823,461.154510 
	C590.633362,460.023041 587.989868,457.840088 584.827209,455.945679 
	C586.050354,452.624786 587.631958,449.446442 589.513733,446.092896 
z"/>
<path fill="#05CA7F" opacity="1.000000" stroke="none" 
	d="
M502.004089,597.625061 
	C499.964600,597.320740 497.878113,596.794373 495.938324,595.936279 
	C491.637695,594.033997 488.648529,591.547485 490.708832,585.984253 
	C491.524994,583.780518 490.980591,581.072876 491.091370,578.119202 
	C494.759277,584.179993 498.391449,590.716248 502.004089,597.625061 
z"/>
<path fill="#05CA7F" opacity="1.000000" stroke="none" 
	d="
M511.607544,611.920715 
	C512.032288,614.822876 511.124420,617.751404 507.887512,617.541748 
	C503.973846,617.288147 501.059326,614.406372 500.521301,610.538330 
	C500.105804,607.551392 502.039154,605.245178 505.885803,604.999634 
	C507.938629,607.319031 509.599548,609.643127 511.607544,611.920715 
z"/>
<path fill="#05CA7F" opacity="1.000000" stroke="none" 
	d="
M427.858337,458.657867 
	C424.533386,459.976562 421.496246,460.995880 418.853851,456.999878 
	C415.922852,452.567566 416.826202,449.033234 419.982544,445.042389 
	C422.700897,449.234131 425.259216,453.772186 427.858337,458.657867 
z"/>
<path fill="#0CC681" opacity="1.000000" stroke="none" 
	d="
M462.217102,523.522461 
	C455.622040,524.027344 454.301453,522.533203 453.895538,516.063416 
	C453.708649,513.084961 452.341461,510.187744 451.583862,507.234558 
	C451.255707,505.955353 451.115326,504.627991 451.031769,502.988770 
	C454.839874,509.487274 458.505859,516.319458 462.217102,523.522461 
z"/>
<path fill="#05CA7F" opacity="1.000000" stroke="none" 
	d="
M382.956543,375.649658 
	C382.677124,376.048248 382.349823,376.082123 382.029053,376.147888 
	C379.754089,376.614410 378.277222,381.315155 375.140259,377.315643 
	C372.221863,373.594788 372.150574,369.657715 375.211395,366.305328 
	C375.541046,365.944336 375.952209,365.657776 376.638855,365.176086 
	C378.938690,368.443573 380.925201,371.871674 382.956543,375.649658 
z"/>
<path fill="#05CA7F" opacity="1.000000" stroke="none" 
	d="
M479.137512,554.627808 
	C477.985870,555.199219 476.860657,555.377808 475.744690,555.602539 
	C471.566864,556.444153 469.422913,554.239746 470.441437,550.148743 
	C470.992920,547.933777 471.520752,545.712891 472.095490,543.064941 
	C474.477203,546.508911 476.822693,550.382507 479.137512,554.627808 
z"/>
<path fill="#05CA7F" opacity="1.000000" stroke="none" 
	d="
M418.088562,440.586212 
	C410.826233,442.914246 409.880310,442.206299 410.040283,434.465851 
	C410.080109,432.539856 410.618866,430.624146 410.990540,428.284607 
	C413.378876,431.987061 415.704987,436.108612 418.088562,440.586212 
z"/>
<path fill="#293850" opacity="1.000000" stroke="none" 
	d="
M919.407471,838.869629 
	C919.919983,836.809204 920.848328,834.793457 921.976440,832.344055 
	C925.813049,831.353638 929.637085,831.759155 932.817017,835.764465 
	C928.621643,837.007324 924.222534,837.960754 919.407471,838.869629 
z"/>
<path fill="#05CA7F" opacity="1.000000" stroke="none" 
	d="
M410.006622,425.619568 
	C407.507904,425.533478 404.271210,425.907867 402.559479,424.468597 
	C399.829803,422.173401 400.808441,418.827545 402.786194,415.987518 
	C403.112091,415.519531 402.936554,414.702301 402.992004,413.665039 
	C405.311829,417.277832 407.632355,421.272095 410.006622,425.619568 
z"/>
<path fill="#0CC681" opacity="1.000000" stroke="none" 
	d="
M490.001099,574.635254 
	C481.579529,571.230347 480.862396,570.002197 482.918152,562.222534 
	C485.397217,565.987732 487.706116,570.130066 490.001099,574.635254 
z"/>
<path fill="#0CC681" opacity="1.000000" stroke="none" 
	d="
M470.579071,538.372375 
	C469.874512,538.673218 469.021912,538.758423 468.248383,538.549988 
	C461.678833,536.780396 460.988464,534.878967 465.001465,529.023560 
	C466.926758,531.802063 468.697205,534.911316 470.579071,538.372375 
z"/>
<path fill="#0CC681" opacity="1.000000" stroke="none" 
	d="
M367.209045,692.335571 
	C373.825897,693.519409 375.003418,695.436401 372.946350,702.082703 
	C370.942780,699.208008 369.103394,695.942261 367.209045,692.335571 
z"/>
<path fill="#04C77D" opacity="1.000000" stroke="none" 
	d="
M265.966431,501.488647 
	C266.098694,499.957520 266.263245,498.745544 266.576172,496.440948 
	C268.860413,499.654633 271.873444,501.451141 268.349091,504.934753 
	C267.323425,503.938599 266.661102,502.873199 265.966431,501.488647 
z"/>
<path fill="#0CC681" opacity="1.000000" stroke="none" 
	d="
M432.733093,467.664886 
	C431.210175,465.462982 429.644440,462.923431 428.118286,459.972473 
	C429.668701,462.149780 431.179474,464.738495 432.733093,467.664886 
z"/>
<path fill="#04B272" opacity="1.000000" stroke="none" 
	d="
M740.393799,449.939697 
	C741.860962,449.421082 743.716064,448.972046 745.809753,448.816193 
	C744.292786,449.409363 742.537231,449.709320 740.393799,449.939697 
z"/>
<path fill="#99C8BA" opacity="1.000000" stroke="none" 
	d="
M620.335693,661.943481 
	C620.734375,661.053833 621.410156,660.037109 622.439270,659.012695 
	C622.065979,659.942200 621.339417,660.879333 620.335693,661.943481 
z"/>
<path fill="#213047" opacity="1.000000" stroke="none" 
	d="
M750.813354,771.399536 
	C751.471985,771.810425 752.226501,772.519897 752.995422,773.599060 
	C752.309631,773.211792 751.609436,772.454956 750.813354,771.399536 
z"/>
<path fill="#485567" opacity="1.000000" stroke="none" 
	d="
M714.100037,685.299316 
	C714.447144,685.671265 714.730103,686.327332 714.719299,687.122925 
	C714.295654,686.702759 714.165771,686.143127 714.100037,685.299316 
z"/>
<path fill="#213047" opacity="1.000000" stroke="none" 
	d="
M755.774658,777.436646 
	C756.381470,777.687561 757.115967,778.252930 757.841309,779.221558 
	C757.188904,779.000244 756.545593,778.375671 755.774658,777.436646 
z"/>
<path fill="#05CA7F" opacity="1.000000" stroke="none" 
	d="
M449.453278,499.733887 
	C449.070496,499.464783 448.591339,498.926392 448.142090,498.084656 
	C448.566956,498.342407 448.961945,498.903503 449.453278,499.733887 
z"/>
<path fill="#04C77D" opacity="1.000000" stroke="none" 
	d="
M339.068726,639.296021 
	C339.313385,639.266541 339.554688,639.522705 339.847778,640.043457 
	C339.621521,640.065857 339.343475,639.823730 339.068726,639.296021 
z"/>
<path fill="#05CA7F" opacity="1.000000" stroke="none" 
	d="
M332.073120,626.282776 
	C332.315796,626.247131 332.548279,626.482178 332.820618,626.968567 
	C332.594574,626.997742 332.328766,626.775635 332.073120,626.282776 
z"/>
<path fill="#213047" opacity="1.000000" stroke="none" 
	d="
M748.201416,768.299561 
	C748.582214,768.212769 748.757263,768.427124 748.916138,768.900391 
	C748.666138,768.917969 748.364685,768.731689 748.201416,768.299561 
z"/>
<path fill="#04C77D" opacity="1.000000" stroke="none" 
	d="
M517.384155,856.113159 
	C517.252869,855.894653 517.395386,855.582397 517.762573,855.134888 
	C517.877380,855.339600 517.767639,855.679443 517.384155,856.113159 
z"/>
<path fill="#05CA7F" opacity="1.000000" stroke="none" 
	d="
M385.533691,623.723511 
	C387.591217,622.352966 390.499634,619.989502 391.056030,620.452515 
	C393.662384,622.621338 399.584778,620.753784 399.094910,626.809265 
	C398.981750,628.208130 399.608398,629.752869 400.187744,631.104858 
	C401.654968,634.528931 400.806396,636.544373 397.305176,638.205139 
	C395.304688,639.153992 393.744537,641.368958 392.410736,643.306213 
	C390.440643,646.167664 384.610504,648.116821 380.188232,646.462585 
	C376.885101,645.227112 372.902924,643.954834 374.390381,638.578186 
	C375.684753,638.236023 377.075104,637.868469 378.842804,637.401123 
	C377.187622,633.367920 380.907623,628.051086 373.926117,625.536133 
	C374.359558,625.035034 374.793030,624.533875 375.226471,624.032776 
	C378.584686,624.032776 381.942871,624.032776 385.533691,623.723511 
z"/>
<path fill="#05CA7F" opacity="1.000000" stroke="none" 
	d="
M431.315125,593.527832 
	C429.747772,590.528931 427.736603,587.944946 427.239471,585.096619 
	C426.932861,583.339783 428.773468,579.639893 429.933136,579.518555 
	C432.428955,579.257507 435.737762,580.048523 437.553619,581.691345 
	C439.877808,583.794006 441.059570,587.159424 442.478241,589.550293 
	C439.400665,591.275024 436.576416,592.943481 433.652039,594.412842 
	C433.159912,594.660156 432.235260,594.046814 431.315125,593.527832 
z"/>
<path fill="#05CA7F" opacity="1.000000" stroke="none" 
	d="
M359.425476,524.573120 
	C359.736938,517.732056 365.322174,521.168274 368.349670,519.120850 
	C368.217499,524.876465 365.307556,526.649780 359.425476,524.573120 
z"/>
<path fill="#05CA7F" opacity="1.000000" stroke="none" 
	d="
M390.667480,536.588318 
	C388.936646,536.071777 387.541046,535.429443 386.145447,534.787048 
	C386.191833,534.379700 386.238251,533.972351 386.284637,533.564941 
	C388.662689,533.165222 391.040771,532.765442 394.977966,532.103577 
	C393.009583,534.261902 392.006165,535.362183 390.667480,536.588318 
z"/>
<path fill="#05CA7F" opacity="1.000000" stroke="none" 
	d="
M351.918945,407.912415 
	C353.441467,407.883575 354.590973,407.964569 355.740448,408.045563 
	C355.513092,408.920868 355.424469,410.469025 355.033264,410.549683 
	C353.674713,410.829803 352.211182,410.600555 350.787567,410.565094 
	C351.040344,409.717468 351.293121,408.869873 351.918945,407.912415 
z"/>
<path fill="#05CA7F" opacity="1.000000" stroke="none" 
	d="
M387.347412,526.506775 
	C385.835907,527.606018 384.517426,528.414429 381.874329,530.034912 
	C382.496460,527.604187 382.661163,525.916016 382.981873,525.885925 
	C384.477783,525.745178 386.016846,526.062439 387.347412,526.506775 
z"/>
<path fill="#05CA7F" opacity="1.000000" stroke="none" 
	d="
M386.958618,455.758484 
	C388.120941,456.000916 389.018280,456.486877 389.915588,456.972870 
	C389.342224,457.586700 388.768829,458.200531 388.195465,458.814362 
	C387.694824,457.876923 387.194214,456.939484 386.958618,455.758484 
z"/>
<path fill="#05CA7F" opacity="1.000000" stroke="none" 
	d="
M371.253387,462.159180 
	C372.116699,461.850677 372.901489,461.880310 373.686279,461.909943 
	C373.536133,462.475647 373.385956,463.041351 373.235809,463.607056 
	C372.548828,463.237122 371.861847,462.867218 371.253387,462.159180 
z"/>
<path fill="#05CA7F" opacity="1.000000" stroke="none" 
	d="
M271.367859,469.149353 
	C272.276093,469.413269 272.860596,469.754395 273.445068,470.095581 
	C272.945831,470.366425 272.446594,470.637268 271.947327,470.908081 
	C271.646240,470.347595 271.345154,469.787109 271.367859,469.149353 
z"/>
<path fill="#05CA7F" opacity="1.000000" stroke="none" 
	d="
M392.466675,511.686493 
	C393.319397,511.942322 393.958710,512.440735 394.598022,512.939087 
	C394.283783,513.228210 393.969543,513.517334 393.655304,513.806396 
	C393.187958,513.180603 392.720612,512.554810 392.466675,511.686493 
z"/>
<path fill="#05CA7F" opacity="1.000000" stroke="none" 
	d="
M345.313538,521.466675 
	C345.057709,522.319397 344.559326,522.958679 344.060913,523.597961 
	C343.771820,523.283691 343.482697,522.969482 343.193604,522.655212 
	C343.819397,522.187927 344.445190,521.720642 345.313538,521.466675 
z"/>
<path fill="#05CA7F" opacity="1.000000" stroke="none" 
	d="
M393.330200,530.088440 
	C393.434814,529.397827 393.714172,528.916809 393.993530,528.435852 
	C394.204651,528.628479 394.615753,528.966675 394.597198,528.992188 
	C394.264038,529.449951 393.878937,529.869934 393.330200,530.088440 
z"/>
<path fill="#05CA7F" opacity="1.000000" stroke="none" 
	d="
M383.394653,475.954437 
	C383.790710,475.712860 384.184662,475.714569 384.576447,475.744781 
	C384.587433,475.745636 384.574951,476.051025 384.573395,476.214417 
	C384.179688,476.210175 383.786011,476.205963 383.394653,475.954437 
z"/>
<path fill="#FDFDFD" opacity="1.000000" stroke="none" 
	d="
M926.789612,733.774658 
	C909.707397,740.968018 892.386719,743.131226 874.421326,739.217468 
	C842.362915,732.233765 817.551941,706.391663 811.914734,674.032043 
	C811.689026,672.736450 811.278137,671.473022 810.601929,670.050964 
	C810.174316,666.902100 810.098267,663.896851 810.019287,659.988647 
	C810.907837,652.765259 811.799255,646.444763 812.690674,640.124329 
	C817.217957,624.483215 824.347107,610.179993 836.936523,599.601318 
	C844.107910,593.575317 852.062805,587.847961 860.609680,584.199158 
	C905.221619,565.153687 949.258972,588.326782 966.377930,625.182190 
	C984.837891,664.924744 968.351074,712.194214 928.792053,732.641724 
	C928.200684,732.947388 927.606995,733.248718 926.789612,733.774658 
z"/>
<path fill="#213047" opacity="1.000000" stroke="none" 
	d="
M812.212036,640.085083 
	C811.799255,646.444763 810.907837,652.765259 809.949097,659.541382 
	C806.458008,659.883362 803.349670,660.173401 801.496521,663.833435 
	C800.852051,665.106323 798.625000,666.927002 798.051636,666.639709 
	C796.161438,665.692749 794.354675,664.116577 793.206482,662.336609 
	C792.584595,661.372375 793.215759,659.467712 793.559875,658.055115 
	C793.827271,656.957336 795.021179,655.930664 794.952820,654.930481 
	C794.455444,647.649536 800.226990,644.750732 804.735596,641.256348 
	C806.388245,639.975525 809.362244,640.399536 812.212036,640.085083 
z"/>
<path fill="#25344C" opacity="1.000000" stroke="none" 
	d="
M925.539551,736.869385 
	C923.438354,742.099487 920.779419,742.934265 914.027893,740.168823 
	C918.223145,738.856323 921.756348,737.750916 925.539551,736.869385 
z"/>
</svg>